<svg width="942" height="499" viewBox="0 0 942 499" fill="none" xmlns="http://www.w3.org/2000/svg">
<path d="M849.152 365.468C899.225 227.632 895.974 13.6593 691.512 0.535054C624.641 -3.75832 556.6 18.5845 494.549 38.9744C443.17 55.8571 377.302 80.6625 361.285 133.899C354.994 154.799 353.182 192.918 320.346 190.729C233.107 184.917 131.737 132.686 73.6669 222.81C23.7584 300.263 58.1511 411.073 126.819 473H770.75C804.401 443.499 832.958 410.042 849.152 365.468Z" fill="#EAF0FF"/>
<rect x="53" y="473" width="838.537" height="5.06363" rx="2.53181" fill="#0C4982"/>
<path d="M330.627 72.9152V41.457C330.627 38.6956 332.866 36.457 335.627 36.457H554.503C557.264 36.457 559.503 38.6956 559.503 41.457V72.9152" stroke="#9DD6F8" stroke-width="2" stroke-linecap="round" stroke-linejoin="round" stroke-dasharray="4 4"/>
<path d="M567 362H472V473H567V362Z" fill="#005FB7"/>
<path opacity="0.6" d="M567 421L474 411.557V362H567V421Z" fill="#1F3C88"/>
<path d="M799.964 100.624L805.929 91.0136L802.982 89.1907C802.561 88.9251 802.221 88.5479 802.001 88.1009C801.781 87.654 801.69 87.1548 801.737 86.6589C801.772 86.0957 801.772 85.5308 801.737 84.9676C801.724 84.4707 801.849 83.98 802.097 83.5495C802.346 83.1189 802.708 82.7651 803.144 82.527L806.182 80.8965L800.896 70.8907L797.858 72.5314C797.419 72.7622 796.924 72.8673 796.43 72.8351C795.935 72.803 795.458 72.6348 795.053 72.3491C794.59 72.0257 794.11 71.7282 793.614 71.4579C793.174 71.2238 792.808 70.8712 792.557 70.4399C792.307 70.0086 792.182 69.5158 792.197 69.0172L792.298 65.5537L780.996 65.1992L780.895 68.6729C780.875 69.1816 780.711 69.6742 780.422 70.0936C780.134 70.513 779.732 70.8421 779.264 71.0426L778.525 71.4174C778.272 71.549 778.039 71.6908 777.796 71.8326C777.374 72.0936 776.889 72.2318 776.393 72.2318C775.897 72.2318 775.412 72.0936 774.99 71.8326L772.023 69.9995L766.099 79.6306L769.046 81.4636C769.466 81.73 769.805 82.1074 770.025 82.5541C770.245 83.0009 770.337 83.4996 770.291 83.9954C770.241 84.5543 770.22 85.1155 770.231 85.6765C770.244 86.1724 770.121 86.6624 769.874 87.0929C769.628 87.5233 769.268 87.8777 768.833 88.1172L765.795 89.7477L771.142 99.723L774.18 98.0824C774.619 97.8516 775.114 97.7465 775.609 97.7786C776.104 97.8108 776.58 97.979 776.986 98.2647C777.445 98.5847 777.921 98.8789 778.413 99.1458C778.854 99.3812 779.22 99.7338 779.472 100.165C779.724 100.595 779.852 101.087 779.841 101.586L779.73 105.06L791.032 105.404L791.143 101.941C791.164 101.444 791.321 100.963 791.598 100.55C791.875 100.137 792.261 99.8086 792.713 99.6015C792.966 99.4901 793.22 99.3585 793.463 99.2268C793.706 99.0951 793.949 98.9635 794.192 98.8116C794.615 98.5508 795.102 98.4128 795.599 98.4128C796.097 98.4128 796.584 98.5508 797.007 98.8116L799.964 100.624ZM790.394 93.5353C788.778 94.4006 786.942 94.7672 785.118 94.5887C783.293 94.4103 781.563 93.6948 780.145 92.5328C778.728 91.3707 777.687 89.8144 777.154 88.0606C776.621 86.3067 776.62 84.4343 777.151 82.68C777.683 80.9257 778.722 79.3684 780.139 78.2051C781.555 77.0418 783.285 76.3248 785.109 76.1447C786.933 75.9646 788.77 76.3296 790.387 77.1934C792.003 78.0573 793.328 79.3812 794.192 80.9977C795.337 83.1574 795.582 85.6826 794.872 88.0221C794.163 90.3616 792.557 92.3253 790.404 93.4846L790.394 93.5353Z" fill="#EBEBEB"/>
<path d="M235.309 337.137L231.38 330.271L229.283 331.486C228.974 331.67 228.619 331.761 228.26 331.748C227.901 331.736 227.553 331.62 227.258 331.415C226.931 331.201 226.593 331.005 226.245 330.828C225.938 330.668 225.681 330.426 225.502 330.13C225.324 329.833 225.23 329.493 225.232 329.147V326.727H217.303V329.137C217.305 329.483 217.211 329.823 217.033 330.12C216.854 330.416 216.597 330.658 216.29 330.818C215.94 330.992 215.602 331.188 215.277 331.405C214.982 331.61 214.634 331.726 214.275 331.738C213.916 331.751 213.561 331.66 213.252 331.476L211.145 330.261L207.186 337.127L209.302 338.343C209.601 338.52 209.845 338.777 210.007 339.084C210.17 339.391 210.245 339.737 210.224 340.084C210.224 340.277 210.224 340.479 210.224 340.672C210.224 340.864 210.224 341.057 210.224 341.249C210.245 341.596 210.17 341.942 210.007 342.249C209.845 342.557 209.601 342.813 209.302 342.991L207.186 344.216L211.145 351.083L213.252 349.867C213.561 349.684 213.916 349.593 214.275 349.605C214.634 349.618 214.982 349.733 215.277 349.938C215.611 350.151 215.946 350.343 216.29 350.526C216.596 350.684 216.853 350.924 217.031 351.219C217.21 351.513 217.304 351.852 217.303 352.197V354.627H225.232V352.197C225.232 351.852 225.327 351.514 225.505 351.22C225.684 350.925 225.94 350.685 226.245 350.526C226.593 350.348 226.931 350.152 227.258 349.938C227.553 349.733 227.901 349.618 228.26 349.605C228.619 349.593 228.974 349.684 229.283 349.867L231.39 351.083L235.349 344.216L233.243 343.001C232.944 342.823 232.7 342.567 232.538 342.259C232.375 341.952 232.3 341.606 232.321 341.259C232.321 341.067 232.321 340.864 232.321 340.672C232.321 340.479 232.321 340.277 232.321 340.084C232.3 339.737 232.375 339.391 232.538 339.084C232.7 338.777 232.944 338.52 233.243 338.343L235.309 337.137ZM227.734 340.682C227.736 341.967 227.356 343.223 226.644 344.292C225.931 345.361 224.918 346.195 223.731 346.688C222.544 347.18 221.238 347.31 219.978 347.059C218.718 346.809 217.56 346.191 216.652 345.282C215.743 344.374 215.125 343.216 214.875 341.956C214.625 340.696 214.754 339.39 215.247 338.203C215.739 337.017 216.573 336.003 217.642 335.29C218.711 334.578 219.968 334.198 221.252 334.2C222.971 334.2 224.62 334.883 225.835 336.099C227.051 337.314 227.734 338.963 227.734 340.682Z" fill="#EBEBEB"/>
<path d="M255.609 201.84C244.942 201.84 234.515 205.003 225.646 210.929C216.777 216.855 209.864 225.278 205.782 235.133C201.7 244.988 200.632 255.832 202.713 266.294C204.794 276.756 209.931 286.366 217.473 293.908C225.016 301.451 234.626 306.588 245.088 308.669C255.549 310.75 266.394 309.682 276.248 305.6C286.103 301.518 294.526 294.605 300.453 285.736C306.379 276.867 309.542 266.439 309.542 255.772C309.547 248.689 308.155 241.673 305.446 235.128C302.737 228.582 298.765 222.635 293.756 217.626C288.747 212.617 282.799 208.644 276.254 205.936C269.708 203.227 262.693 201.835 255.609 201.84ZM255.609 280.942C250.627 280.942 245.757 279.464 241.614 276.696C237.472 273.928 234.243 269.993 232.338 265.389C230.432 260.786 229.934 255.721 230.907 250.834C231.88 245.948 234.281 241.46 237.805 237.938C241.33 234.416 245.819 232.019 250.706 231.049C255.593 230.079 260.658 230.581 265.26 232.49C269.862 234.399 273.795 237.63 276.56 241.774C279.326 245.919 280.8 250.79 280.797 255.772C280.792 262.449 278.136 268.851 273.413 273.571C268.69 278.291 262.286 280.942 255.609 280.942Z" fill="#F9F9F9"/>
<path d="M265.982 204.07H245.237L246.388 189.379H264.831L265.982 204.07Z" fill="#F9F9F9"/>
<path d="M226.493 211.062L211.838 225.718L202.262 214.531L215.307 201.486L226.493 211.062Z" fill="#F9F9F9"/>
<path d="M203.518 243.914V264.659L188.845 263.508V245.065L203.518 243.914Z" fill="#F9F9F9"/>
<path d="M210.509 283.385L225.183 298.058L213.979 307.634L200.934 294.589L210.509 283.385Z" fill="#F9F9F9"/>
<path d="M243.361 306.359H264.106L262.955 321.051H244.512L243.361 306.359Z" fill="#F9F9F9"/>
<path d="M282.851 299.369L297.506 284.713L307.082 295.899L294.037 308.944L282.851 299.369Z" fill="#F9F9F9"/>
<path d="M305.825 266.516V245.771L320.499 246.922V265.366L305.825 266.516Z" fill="#F9F9F9"/>
<path d="M298.834 227.046L284.16 212.373L295.364 202.814L308.409 215.86L298.834 227.046Z" fill="#F9F9F9"/>
<path d="M751.009 130.459C744.903 130.457 738.934 132.266 733.857 135.656C728.779 139.047 724.821 143.867 722.483 149.507C720.146 155.147 719.533 161.354 720.723 167.343C721.913 173.331 724.852 178.832 729.168 183.15C733.485 187.468 738.985 190.409 744.973 191.601C750.961 192.793 757.168 192.182 762.809 189.846C768.45 187.51 773.271 183.554 776.664 178.477C780.056 173.401 781.867 167.432 781.867 161.327C781.868 157.274 781.071 153.26 779.521 149.515C777.97 145.77 775.698 142.367 772.832 139.501C769.967 136.634 766.564 134.36 762.82 132.809C759.075 131.257 755.062 130.459 751.009 130.459ZM751.009 175.728C748.158 175.728 745.372 174.882 743.001 173.298C740.631 171.714 738.784 169.463 737.694 166.829C736.603 164.195 736.319 161.297 736.875 158.502C737.432 155.706 738.806 153.138 740.822 151.123C742.839 149.108 745.407 147.736 748.204 147.181C751 146.626 753.898 146.913 756.531 148.006C759.164 149.098 761.414 150.947 762.996 153.318C764.578 155.689 765.422 158.476 765.42 161.327C765.42 163.219 765.047 165.092 764.323 166.84C763.598 168.588 762.537 170.176 761.198 171.513C759.86 172.851 758.271 173.911 756.523 174.635C754.775 175.358 752.901 175.729 751.009 175.728Z" fill="#EBEBEB"/>
<path d="M756.943 131.745H745.074L745.733 123.34H756.285L756.943 131.745Z" fill="#EBEBEB"/>
<path d="M734.35 135.746L725.964 144.132L720.485 137.731L727.949 130.268L734.35 135.746Z" fill="#EBEBEB"/>
<path d="M721.204 154.543V166.412L712.809 165.754V155.201L721.204 154.543Z" fill="#EBEBEB"/>
<path d="M725.205 177.125L733.601 185.521L727.2 190.999L719.736 183.536L725.205 177.125Z" fill="#EBEBEB"/>
<path d="M744.012 190.27H755.871L755.223 198.675H744.66L744.012 190.27Z" fill="#EBEBEB"/>
<path d="M766.595 186.27L774.99 177.885L780.459 184.285L772.995 191.749L766.595 186.27Z" fill="#EBEBEB"/>
<path d="M779.74 167.475V155.605L788.136 156.264V166.816L779.74 167.475Z" fill="#EBEBEB"/>
<path d="M775.74 144.892L767.354 136.496L773.755 131.018L781.219 138.481L775.74 144.892Z" fill="#EBEBEB"/>
<path d="M741.785 402.917C732.181 415.921 722.158 431.029 719.741 447.35C719.741 447.59 720.107 447.674 720.16 447.423C721.27 442.977 722.69 438.614 724.407 434.366C730.685 432.619 736.962 431.227 740.247 424.95C743.626 418.505 743.198 410.104 742.559 403.084C742.486 402.687 741.984 402.666 741.785 402.917Z" fill="#9DD6F8"/>
<path d="M718.612 444.922C718.612 445.121 718.967 445.11 718.957 444.922C718.957 439.555 718.957 434.156 719.041 428.758C720.422 425.975 723.372 424.437 725.433 422.209C726.905 420.591 728.19 418.811 729.262 416.904C731.737 412.316 733.25 407.272 733.709 402.079C734.274 396.336 732.097 377.368 729.67 378.016C728.415 378.351 724.345 387.746 723.267 390.853C721.522 395.976 720.244 401.246 719.449 406.599C717.482 419.206 717.649 432.19 718.612 444.922Z" fill="#9DD6F8"/>
<path d="M714.97 429.375C714.892 432.923 714.471 436.454 713.715 439.921C713.767 440.308 713.82 440.685 713.882 441.083C714.975 437.237 715.611 433.276 715.776 429.281C715.809 429.226 715.827 429.163 715.827 429.098C715.827 429.034 715.809 428.97 715.776 428.915C715.936 423.56 715.54 418.202 714.594 412.929C712.93 403.052 709.289 393.574 702.405 386.166C702.347 386.119 702.28 386.085 702.207 386.067C702.135 386.049 702.059 386.048 701.986 386.063C701.913 386.078 701.844 386.109 701.784 386.154C701.725 386.199 701.676 386.257 701.642 386.323C698.869 393.396 699.832 401.828 702.206 408.88C703.494 412.695 705.334 416.301 707.668 419.583C710.043 422.941 713.056 425.755 714.97 429.375Z" fill="#35B5FF"/>
<path d="M711.371 411.674L711.466 411.768C711.478 411.781 711.485 411.798 711.485 411.815C711.485 411.833 711.478 411.85 711.466 411.862C711.453 411.875 711.436 411.882 711.418 411.882C711.401 411.882 711.384 411.875 711.371 411.862L711.277 411.779C711.162 411.758 711.256 411.674 711.371 411.674Z" fill="#263238"/>
<path d="M693 409.874C693.769 415.788 696.142 421.378 699.863 426.038C701.403 427.861 703.306 429.344 705.45 430.391C707.867 431.594 710.399 432.964 712.899 433.948C714.093 436.99 714.98 440.145 715.546 443.364C715.619 443.081 715.703 442.799 715.787 442.527C714.176 428.727 705.251 416.936 693.816 409.362C693.729 409.319 693.633 409.299 693.537 409.303C693.44 409.308 693.346 409.338 693.264 409.389C693.183 409.441 693.115 409.512 693.069 409.597C693.023 409.682 692.999 409.778 693 409.874Z" fill="#35B5FF"/>
<path d="M733.635 473.213H702.343L704.864 444.703L705.419 438.426H730.559L731.114 444.703L733.635 473.213Z" fill="#10699D"/>
<path d="M731.114 444.703H704.864L705.419 438.426H730.559L731.114 444.703Z" fill="#0C4982"/>
<path d="M732.056 434.031H703.923V440.256H732.056V434.031Z" fill="#10699D"/>
<path d="M288.851 76.4277H689.417C699.082 76.4277 706.917 84.2627 706.917 93.9277V345.684C706.917 355.349 699.082 363.184 689.417 363.184H288.851C279.186 363.184 271.351 355.349 271.351 345.684V93.9278C271.351 84.2628 279.186 76.4277 288.851 76.4277Z" fill="#86BDEF" stroke="#10699D" stroke-width="5"/>
<path d="M674.544 95.9863H303.115C297.592 95.9863 293.115 100.463 293.115 105.986V333.618C293.115 339.141 297.592 343.618 303.115 343.618H674.544C680.067 343.618 684.544 339.141 684.544 333.618V105.986C684.544 100.463 680.067 95.9863 674.544 95.9863Z" fill="white"/>
<path d="M368.782 237.99H319.715C318.471 237.99 317.462 238.999 317.462 240.244C317.462 241.488 318.471 242.497 319.715 242.497H368.782C370.026 242.497 371.035 241.488 371.035 240.244C371.035 238.999 370.026 237.99 368.782 237.99Z" fill="#FFD495"/>
<path d="M470.237 248.441H319.715C318.471 248.441 317.462 249.45 317.462 250.695C317.462 251.939 318.471 252.948 319.715 252.948H470.237C471.481 252.948 472.49 251.939 472.49 250.695C472.49 249.45 471.481 248.441 470.237 248.441Z" fill="#FFD495"/>
<path d="M470.237 258.367H319.715C318.471 258.367 317.462 259.376 317.462 260.621C317.462 261.865 318.471 262.874 319.715 262.874H470.237C471.481 262.874 472.49 261.865 472.49 260.621C472.49 259.376 471.481 258.367 470.237 258.367Z" fill="#FFD495"/>
<path d="M470.237 268.281H319.715C318.471 268.281 317.462 269.29 317.462 270.535C317.462 271.779 318.471 272.788 319.715 272.788H470.237C471.481 272.788 472.49 271.779 472.49 270.535C472.49 269.29 471.481 268.281 470.237 268.281Z" fill="#FFD495"/>
<path d="M470.237 278.195H319.715C318.471 278.195 317.462 279.204 317.462 280.449C317.462 281.693 318.471 282.702 319.715 282.702H470.237C471.481 282.702 472.49 281.693 472.49 280.449C472.49 279.204 471.481 278.195 470.237 278.195Z" fill="#FFD495"/>
<path d="M470.237 288.109H319.715C318.471 288.109 317.462 289.118 317.462 290.363C317.462 291.607 318.471 292.616 319.715 292.616H470.237C471.481 292.616 472.49 291.607 472.49 290.363C472.49 289.118 471.481 288.109 470.237 288.109Z" fill="#FFD495"/>
<path d="M675.081 95.1953H293.156V108.361H685.081V105.195C685.081 99.6725 680.604 95.1953 675.081 95.1953Z" fill="#10699D"/>
<path d="M300.691 100.756C300.691 101.223 300.553 101.679 300.293 102.067C300.034 102.455 299.665 102.758 299.234 102.936C298.803 103.115 298.329 103.161 297.871 103.07C297.413 102.979 296.993 102.755 296.663 102.425C296.333 102.095 296.108 101.674 296.017 101.216C295.926 100.759 295.973 100.284 296.151 99.8531C296.33 99.422 296.632 99.0534 297.02 98.7942C297.408 98.5349 297.865 98.3965 298.331 98.3965C298.957 98.3965 299.557 98.6451 300 99.0876C300.442 99.5301 300.691 100.13 300.691 100.756Z" fill="#FFC727"/>
<path d="M310.342 100.756C310.344 101.226 310.207 101.685 309.947 102.077C309.687 102.468 309.317 102.773 308.884 102.954C308.45 103.134 307.973 103.182 307.512 103.091C307.052 103 306.629 102.774 306.297 102.442C305.965 102.11 305.739 101.687 305.648 101.226C305.556 100.765 305.604 100.288 305.785 99.8547C305.965 99.4213 306.271 99.0513 306.662 98.7917C307.053 98.532 307.513 98.3945 307.982 98.3965C308.608 98.3965 309.208 98.6451 309.651 99.0876C310.093 99.5301 310.342 100.13 310.342 100.756Z" fill="#EBEBEB"/>
<path d="M319.993 100.756C319.995 101.226 319.858 101.685 319.598 102.077C319.339 102.468 318.969 102.773 318.535 102.954C318.102 103.134 317.624 103.182 317.164 103.091C316.703 103 316.28 102.774 315.948 102.442C315.616 102.11 315.39 101.687 315.299 101.226C315.208 100.765 315.256 100.288 315.436 99.8547C315.617 99.4213 315.922 99.0513 316.313 98.7917C316.705 98.532 317.164 98.3945 317.634 98.3965C318.26 98.3965 318.86 98.6451 319.302 99.0876C319.745 99.5301 319.993 100.13 319.993 100.756Z" fill="white"/>
<path d="M490.574 291.693H551.891C554.652 291.693 556.891 289.455 556.891 286.693V241.976C556.891 239.214 554.652 236.976 551.891 236.976H490.575C487.813 236.976 485.575 239.214 485.575 241.976V286.693C485.575 289.455 487.813 291.693 490.574 291.693Z" fill="#FFA557"/>
<path d="M492.674 248.938C492.399 250.3 492.57 251.715 493.162 252.972C493.753 254.23 494.734 255.264 495.959 255.92C497.184 256.577 498.587 256.822 499.962 256.619C501.337 256.416 502.61 255.776 503.593 254.793C504.576 253.811 505.216 252.538 505.419 251.163C505.622 249.788 505.377 248.384 504.72 247.159C504.063 245.934 503.03 244.953 501.772 244.362C500.514 243.77 499.1 243.599 497.737 243.874C496.489 244.127 495.343 244.742 494.443 245.643C493.542 246.543 492.927 247.689 492.674 248.938Z" fill="#FFD495"/>
<path d="M509.08 280.078H555.665L535.321 257.96C533.737 256.237 531.018 256.237 529.434 257.959L509.08 280.078Z" fill="#FBC18E"/>
<path d="M488.825 280.078H528.321L511.36 263.555C509.807 262.042 507.331 262.043 505.777 263.556L488.825 280.078Z" fill="#FFD595"/>
<path opacity="0.1" d="M556.89 279.906H485.574V286.694C485.574 289.456 487.813 291.694 490.574 291.694H551.89C554.652 291.694 556.89 289.456 556.89 286.694V279.906Z" fill="#B99001"/>
<path d="M499.697 136.717H458.185C454.854 136.717 452.154 139.417 452.154 142.748C452.154 146.078 454.854 148.778 458.185 148.778H499.697C503.027 148.778 505.727 146.078 505.727 142.748C505.727 139.417 503.027 136.717 499.697 136.717Z" fill="#E7EDF2"/>
<path d="M559.964 157.094H454.408C453.163 157.094 452.154 158.103 452.154 159.347C452.154 160.592 453.163 161.6 454.408 161.6H559.964C561.208 161.6 562.217 160.592 562.217 159.347C562.217 158.103 561.208 157.094 559.964 157.094Z" fill="#E7EDF2"/>
<path d="M559.964 167.008H454.408C453.163 167.008 452.154 168.017 452.154 169.261C452.154 170.506 453.163 171.514 454.408 171.514H559.964C561.208 171.514 562.217 170.506 562.217 169.261C562.217 168.017 561.208 167.008 559.964 167.008Z" fill="#E7EDF2"/>
<path d="M559.964 176.922H454.408C453.163 176.922 452.154 177.931 452.154 179.175C452.154 180.42 453.163 181.429 454.408 181.429H559.964C561.208 181.429 562.217 180.42 562.217 179.175C562.217 177.931 561.208 176.922 559.964 176.922Z" fill="#E7EDF2"/>
<path d="M559.964 186.836H454.408C453.163 186.836 452.154 187.845 452.154 189.089C452.154 190.334 453.163 191.343 454.408 191.343H559.964C561.208 191.343 562.217 190.334 562.217 189.089C562.217 187.845 561.208 186.836 559.964 186.836Z" fill="#E7EDF2"/>
<path d="M559.964 200.033H454.408C453.163 200.033 452.154 201.042 452.154 202.287C452.154 203.531 453.163 204.54 454.408 204.54H559.964C561.208 204.54 562.217 203.531 562.217 202.287C562.217 201.042 561.208 200.033 559.964 200.033Z" fill="#E7EDF2"/>
<path d="M559.964 209.947H454.408C453.163 209.947 452.154 210.956 452.154 212.201C452.154 213.445 453.163 214.454 454.408 214.454H559.964C561.208 214.454 562.217 213.445 562.217 212.201C562.217 210.956 561.208 209.947 559.964 209.947Z" fill="#E7EDF2"/>
<path d="M619.033 201.718V32.752H800.756V201.718C800.756 206.16 797.158 209.761 792.722 209.761C792.56 209.761 792.408 209.84 792.314 209.973C792.22 210.105 792.197 210.275 792.251 210.428L797.61 225.57C797.765 226.011 797.286 226.405 796.884 226.168L769.254 209.831C769.177 209.785 769.089 209.761 769 209.761H627.067C622.632 209.761 619.033 206.16 619.033 201.718Z" fill="white" stroke="#10699D" stroke-linejoin="round"/>
<path d="M801.256 22.0767C801.256 17.3591 797.435 13.5332 792.722 13.5332H627.067C622.355 13.5332 618.533 17.3591 618.533 22.0767V32.2515H801.256V22.0767Z" fill="#86BDEF"/>
<path d="M801.79 32.7863H618V22.0775C618 17.0715 622.067 13 627.068 13H792.722C797.723 13 801.79 17.0715 801.79 22.0775V32.7863ZM619.067 31.7183H800.723V22.0775C800.723 17.6616 797.133 14.0679 792.722 14.0679H627.068C622.656 14.0679 619.067 17.6616 619.067 22.0775V31.7183Z" fill="#3A6BEA"/>
<path d="M633.114 26.5557C635.176 26.5557 636.847 24.8822 636.847 22.8179C636.847 20.7535 635.176 19.0801 633.114 19.0801C631.052 19.0801 629.38 20.7535 629.38 22.8179C629.38 24.8822 631.052 26.5557 633.114 26.5557Z" fill="white"/>
<path d="M784.431 114.033H773.408V194.85H784.431V114.033Z" fill="#5F9AD0"/>
<path d="M761.423 117.213H750.4V194.873H761.423V117.213Z" fill="#C3E1FC"/>
<path d="M738.412 130.318H727.39V194.955H738.412V130.318Z" fill="#5F9AD0"/>
<path d="M715.405 139.441H704.383V194.985H715.405V139.441Z" fill="#C3E1FC"/>
<path d="M692.397 156.246H681.375V195.178H692.397V156.246Z" fill="#5F9AD0"/>
<path d="M669.387 170.154H658.364V195.262H669.387V170.154Z" fill="#C3E1FC"/>
<path d="M646.379 178.361H635.356V195.408H646.379V178.361Z" fill="#5F9AD0"/>
<path d="M665.376 126.57H644.798C643.035 126.57 641.603 128.001 641.603 129.769V142.354C641.603 144.119 643.032 145.553 644.798 145.553H657.732L661.615 151.67L665.506 145.54C667.208 145.467 668.565 144.076 668.565 142.354V129.769C668.571 128.001 667.139 126.57 665.376 126.57Z" fill="#5F9AD0"/>
<path d="M655.087 130.832L656.713 134.135L660.354 134.663L657.721 137.232L658.343 140.86L655.087 139.149L651.833 140.86L652.454 137.232L649.819 134.663L653.46 134.135L655.087 130.832Z" fill="white"/>
<path d="M785.097 97.9302H634.689V47.2031H785.097V97.9302ZM635.756 96.8623H784.031V48.2711H635.756V96.8623Z" fill="#F9F9F9"/>
<path d="M784.564 84.4492H635.223V85.5171H784.564V84.4492Z" fill="#F9F9F9"/>
<path d="M784.564 72.0332H635.223V73.1011H784.564V72.0332Z" fill="#F9F9F9"/>
<path d="M784.564 59.6172H635.223V60.6851H784.564V59.6172Z" fill="#F9F9F9"/>
<path d="M770.164 47.7363H769.098V97.3955H770.164V47.7363Z" fill="#F9F9F9"/>
<path d="M755.23 47.7363H754.163V97.3955H755.23V47.7363Z" fill="#F9F9F9"/>
<path d="M740.295 47.7363H739.229V97.3955H740.295V47.7363Z" fill="#F9F9F9"/>
<path d="M725.361 47.7363H724.294V97.3955H725.361V47.7363Z" fill="#F9F9F9"/>
<path d="M710.428 47.7363H709.361V97.3955H710.428V47.7363Z" fill="#F9F9F9"/>
<path d="M695.494 47.7363H694.427V97.3955H695.494V47.7363Z" fill="#F9F9F9"/>
<path d="M680.558 47.7363H679.491V97.3955H680.558V47.7363Z" fill="#F9F9F9"/>
<path d="M665.623 47.7363H664.557V97.3955H665.623V47.7363Z" fill="#F9F9F9"/>
<path d="M650.692 47.7363H649.625V97.3955H650.692V47.7363Z" fill="#F9F9F9"/>
<path d="M647.443 89.6321C647.166 89.6321 646.875 89.6027 646.568 89.5413C644.192 89.0607 643.76 86.9249 643.413 85.2082C643.053 83.4274 642.763 82.3327 641.397 82.2153C639.821 82.0818 637.135 84.0868 635.815 85.4832L635.039 84.749C636.047 83.681 639.173 80.9498 641.488 81.15C643.723 81.3396 644.115 83.2832 644.459 84.9946C644.856 86.9596 645.211 88.177 646.779 88.4947C649.382 89.0207 650.446 86.3695 651.393 83.366L654.692 72.9055C655.204 71.2849 655.78 69.448 657.079 68.0757C658.343 66.7355 660.65 65.8945 662.434 66.9704C663.767 67.774 664.445 69.3252 664.447 71.5813C664.447 71.9871 664.437 72.4169 664.423 72.8681C664.375 74.5341 664.319 76.4217 664.925 77.7379C665.208 78.3547 665.744 78.8406 666.325 79.0088C666.768 79.1369 667.192 79.0729 667.586 78.8165C668.827 78.0103 668.976 76.4991 669.133 74.9025C669.232 73.9014 669.333 72.8654 669.723 71.9817C670.448 70.3398 672.171 69.6403 673.912 70.2784C677.473 71.5839 677.31 75.8877 677.201 78.7364L677.19 79.0542C677.115 81.0886 677.345 83.9453 678.854 86.0064C679.452 86.8234 680.26 87.288 681.009 87.2533C681.676 87.2212 682.265 86.8074 682.713 86.0518C683.484 84.757 683.575 82.9762 683.665 81.2514C683.692 80.7282 683.719 80.2316 683.764 79.7537L684.474 72.1927C684.767 69.0609 685.852 67.1867 687.613 66.7755C688.394 66.5913 689.085 66.7061 689.661 67.1146C690.565 67.7554 691.112 69.0663 691.338 71.122C691.4 71.6774 691.368 72.3021 691.333 72.9642C691.224 75.1241 691.269 76.5685 692.837 76.9797C693.803 77.2333 694.917 76.5392 695.44 75.7222C696.12 74.6542 696.299 73.3086 696.472 72.0058C696.52 71.6346 696.571 71.2635 696.63 70.9031C697.046 68.3721 697.568 65.3899 698.286 62.4717L698.296 62.4343C698.696 60.8031 699.248 58.5711 700.955 57.5779C702.246 56.8303 703.27 57.0359 703.9 57.3403C705.43 58.0798 706.377 60.205 706.636 61.9805C706.807 63.1445 706.78 64.394 706.756 65.6008C706.724 67.208 706.689 68.8714 707.129 70.2864C707.564 71.6854 708.969 73.4421 710.73 72.9669C712.605 72.4596 712.994 70.8364 713.445 68.9541C713.533 68.5884 713.623 68.2119 713.725 67.8461C714.554 64.9066 715.688 60.8805 718.232 58.2801C719.8 56.6782 722.27 56.3204 724.238 57.407C727.201 59.0436 727.174 62.6186 727.15 65.7717C727.137 67.4109 727.126 68.9568 727.499 70.1289C727.99 71.6667 728.83 72.6225 729.996 72.9749C730.958 73.2659 731.841 73.1778 732.617 72.7159C734.049 71.8669 734.911 69.8966 735.239 68.3374L735.38 67.6646C736.052 64.4314 736.975 60.0021 739.061 57.5512C740.463 55.9039 742.346 55.2525 744.227 55.7651C746.251 56.3177 747.814 58.1279 748.208 60.3786C748.256 60.6509 748.299 60.9232 748.339 61.1982C748.472 62.0659 748.595 62.8856 748.907 63.6411C749.342 64.7037 750.08 65.3552 750.987 65.4806C751.987 65.6168 753.043 65.0962 753.82 64.0897C754.409 63.3288 754.809 62.445 755.236 61.5133C755.489 60.9553 755.753 60.3759 756.06 59.8232C758.86 54.7986 764.759 52.8282 769.347 52.66C774.675 52.4651 779.836 54.1445 784.391 55.6262L784.06 56.6408C779.588 55.1857 774.523 53.5384 769.384 53.728C765.087 53.8855 759.575 55.7063 756.991 60.3439C756.702 60.8591 756.449 61.4171 756.204 61.9564C755.772 62.9042 755.326 63.8841 754.662 64.7438C753.649 66.0547 752.219 66.7248 750.841 66.5379C749.56 66.3644 748.494 65.4566 747.918 64.0469C747.56 63.1712 747.419 62.2501 747.283 61.3584C747.243 61.0914 747.203 60.8271 747.155 60.5628C746.832 58.7179 745.571 57.2388 743.944 56.793C742.477 56.3925 740.994 56.9211 739.871 58.24C737.962 60.4827 737.074 64.7571 736.423 67.8782L736.282 68.5536C735.794 70.8604 734.628 72.7587 733.159 73.629C732.113 74.2484 730.945 74.3712 729.684 73.9921C728.182 73.5383 727.073 72.3155 726.478 70.4492C726.051 69.1143 726.065 67.4857 726.078 65.7583C726.102 62.7627 726.126 59.6657 723.718 58.3361C722.166 57.4791 720.221 57.7621 718.989 59.0223C716.637 61.4251 715.544 65.3018 714.746 68.1291C714.65 68.4736 714.559 68.842 714.477 69.1971C714.013 71.1274 713.487 73.3167 711.002 73.9895C708.785 74.5902 706.769 72.7346 706.103 70.5961C705.609 69.0155 705.646 67.2641 705.681 65.5714C705.705 64.354 705.729 63.2059 705.572 62.13C705.353 60.6349 704.548 58.8381 703.428 58.2961C702.841 58.0104 702.203 58.0772 701.481 58.4963C700.163 59.2599 699.697 61.1582 699.323 62.6826L699.312 62.72C698.603 65.6008 698.086 68.5563 697.672 71.0686C697.614 71.4211 697.568 71.7788 697.52 72.1393C697.334 73.5569 697.139 75.0227 696.331 76.2882C695.597 77.4389 694.067 78.3974 692.56 78.0049C690.034 77.3428 690.165 74.7771 690.258 72.9028C690.29 72.2861 690.32 71.7014 690.269 71.2315C690.037 69.101 689.471 68.2867 689.037 67.9796C688.717 67.7527 688.327 67.6966 687.847 67.8088C686.156 68.2039 685.668 70.783 685.527 72.2861L684.818 79.8471C684.775 80.3036 684.751 80.7869 684.722 81.2995C684.628 83.0669 684.524 85.0693 683.62 86.5885C682.988 87.6484 682.076 88.2598 681.049 88.3079C679.926 88.3639 678.806 87.7499 677.982 86.6259C676.291 84.3164 676.033 81.2061 676.113 79.0034L676.123 78.6857C676.225 75.9945 676.366 72.3074 673.534 71.2689C672.326 70.8257 671.182 71.2822 670.688 72.4009C670.368 73.1271 670.277 74.0348 670.184 74.9933C670.016 76.6887 669.829 78.6136 668.157 79.7003C667.501 80.1274 666.762 80.2396 666.018 80.0233C665.136 79.767 664.362 79.0755 663.946 78.1731C663.237 76.6299 663.295 74.6089 663.346 72.8254C663.359 72.3795 663.37 71.9604 663.37 71.5706C663.367 69.715 662.863 68.4735 661.874 67.8728C660.57 67.0852 658.826 67.7607 657.847 68.7966C656.719 69.99 656.18 71.7041 655.703 73.2125L652.412 83.6516C651.694 85.953 650.534 89.6294 647.443 89.6321Z" fill="#1B87C6"/>
<path d="M680.763 89.6534C682.089 89.6534 683.164 88.5776 683.164 87.2505C683.164 85.9235 682.089 84.8477 680.763 84.8477C679.438 84.8477 678.363 85.9235 678.363 87.2505C678.363 88.5776 679.438 89.6534 680.763 89.6534Z" fill="#FFA557"/>
<path d="M769.573 55.4796C770.899 55.4796 771.973 54.4038 771.973 53.0767C771.973 51.7496 770.899 50.6738 769.573 50.6738C768.247 50.6738 767.173 51.7496 767.173 53.0767C767.173 54.4038 768.247 55.4796 769.573 55.4796Z" fill="#FFA557"/>
<path d="M426.963 136.717H326.448C320.925 136.717 316.448 141.194 316.448 146.717V207.735C316.448 213.258 320.925 217.735 326.448 217.735H426.963C432.485 217.735 436.963 213.258 436.963 207.735V146.717C436.963 141.194 432.485 136.717 426.963 136.717Z" fill="#E7EDF2"/>
<path d="M375.828 16.2031H306.258C303.496 16.2031 301.258 18.4417 301.258 21.2031V46.9543C301.258 49.7157 303.496 51.9543 306.258 51.9543H375.828C378.589 51.9543 380.828 49.7157 380.828 46.9543V21.2031C380.828 18.4417 378.589 16.2031 375.828 16.2031Z" fill="#FFA557"/>
<path d="M323.789 36.8671H320.489V42.6945C320.489 43.0959 320.33 43.4809 320.046 43.7647C319.762 44.0486 319.377 44.2081 318.976 44.2081C318.574 44.2081 318.189 44.0486 317.905 43.7647C317.621 43.4809 317.462 43.0959 317.462 42.6945V26.832C317.462 26.4305 317.621 26.0455 317.905 25.7617C318.189 25.4778 318.574 25.3184 318.976 25.3184H323.774C325.299 25.3184 326.762 25.9243 327.841 27.003C328.919 28.0816 329.525 29.5446 329.525 31.07C329.525 32.5955 328.919 34.0584 327.841 35.1371C326.762 36.2157 325.299 36.8217 323.774 36.8217L323.789 36.8671ZM320.489 33.8399H323.789C324.152 33.8399 324.513 33.7683 324.849 33.6291C325.185 33.4899 325.49 33.2859 325.747 33.0286C326.005 32.7714 326.209 32.4661 326.348 32.13C326.487 31.794 326.559 31.4338 326.559 31.07C326.559 30.7063 326.487 30.3461 326.348 30.01C326.209 29.674 326.005 29.3686 325.747 29.1114C325.49 28.8542 325.185 28.6502 324.849 28.511C324.513 28.3718 324.152 28.3002 323.789 28.3002H320.489V33.8399Z" fill="white"/>
<path d="M333.173 42.6945V26.832C333.173 26.4305 333.332 26.0455 333.616 25.7617C333.9 25.4778 334.285 25.3184 334.686 25.3184C335.088 25.3184 335.473 25.4778 335.757 25.7617C336.041 26.0455 336.2 26.4305 336.2 26.832V33.295H343.163V26.832C343.163 26.4305 343.322 26.0455 343.606 25.7617C343.89 25.4778 344.275 25.3184 344.676 25.3184C345.078 25.3184 345.463 25.4778 345.747 25.7617C346.03 26.0455 346.19 26.4305 346.19 26.832V42.6945C346.19 43.0959 346.03 43.4809 345.747 43.7647C345.463 44.0486 345.078 44.2081 344.676 44.2081C344.275 44.2081 343.89 44.0486 343.606 43.7647C343.322 43.4809 343.163 43.0959 343.163 42.6945V36.2465H336.2V42.6945C336.2 43.0959 336.041 43.4809 335.757 43.7647C335.473 44.0486 335.088 44.2081 334.686 44.2081C334.285 44.2081 333.9 44.0486 333.616 43.7647C333.332 43.4809 333.173 43.0959 333.173 42.6945Z" fill="white"/>
<path d="M358.51 36.8671H355.211V42.6945C355.211 43.0959 355.051 43.4809 354.767 43.7647C354.484 44.0486 354.099 44.2081 353.697 44.2081C353.296 44.2081 352.911 44.0486 352.627 43.7647C352.343 43.4809 352.184 43.0959 352.184 42.6945V26.832C352.184 26.4305 352.343 26.0455 352.627 25.7617C352.911 25.4778 353.296 25.3184 353.697 25.3184H358.51C360.036 25.3184 361.499 25.9243 362.577 27.003C363.656 28.0816 364.262 29.5446 364.262 31.07C364.262 32.5955 363.656 34.0584 362.577 35.1371C361.499 36.2157 360.036 36.8217 358.51 36.8217V36.8671ZM355.211 33.8399H358.51C358.874 33.8399 359.234 33.7683 359.57 33.6291C359.906 33.4899 360.212 33.2859 360.469 33.0286C360.726 32.7714 360.93 32.4661 361.07 32.13C361.209 31.794 361.28 31.4338 361.28 31.07C361.28 30.7063 361.209 30.3461 361.07 30.01C360.93 29.674 360.726 29.3686 360.469 29.1114C360.212 28.8542 359.906 28.6502 359.57 28.511C359.234 28.3718 358.874 28.3002 358.51 28.3002H355.211V33.8399Z" fill="white"/>
<g opacity="0.8">
<path opacity="0.8" d="M641 302H483V383H641V302Z" fill="white"/>
<path opacity="0.8" d="M640.745 301.598H482.598V313.041H640.745V301.598Z" fill="#1B87C6"/>
<path opacity="0.8" d="M493.343 307.402C493.345 307.973 493.177 308.532 492.861 309.008C492.545 309.484 492.095 309.855 491.568 310.075C491.041 310.295 490.46 310.354 489.9 310.244C489.339 310.133 488.824 309.859 488.419 309.456C488.015 309.053 487.739 308.539 487.627 307.978C487.514 307.418 487.571 306.837 487.789 306.309C488.007 305.781 488.377 305.33 488.852 305.013C489.327 304.695 489.885 304.525 490.457 304.525C491.219 304.528 491.951 304.832 492.491 305.37C493.031 305.909 493.337 306.639 493.343 307.402Z" fill="#35B5FF"/>
<path opacity="0.8" d="M505.101 307.402C505.103 307.973 504.935 308.532 504.619 309.008C504.303 309.484 503.853 309.855 503.326 310.075C502.799 310.295 502.218 310.354 501.658 310.244C501.097 310.133 500.582 309.859 500.177 309.456C499.772 309.053 499.497 308.539 499.384 307.978C499.272 307.418 499.329 306.837 499.547 306.309C499.765 305.781 500.135 305.33 500.61 305.013C501.085 304.695 501.643 304.525 502.214 304.525C502.977 304.528 503.708 304.832 504.249 305.37C504.789 305.909 505.095 306.639 505.101 307.402Z" fill="#EBEBEB"/>
<path opacity="0.8" d="M516.858 307.402C516.86 307.973 516.693 308.532 516.377 309.008C516.061 309.484 515.611 309.855 515.084 310.075C514.557 310.295 513.976 310.354 513.415 310.244C512.855 310.133 512.34 309.859 511.935 309.456C511.53 309.053 511.254 308.539 511.142 307.978C511.03 307.418 511.087 306.837 511.305 306.309C511.523 305.781 511.893 305.33 512.368 305.013C512.842 304.695 513.401 304.525 513.972 304.525C514.735 304.528 515.466 304.832 516.007 305.37C516.547 305.909 516.853 306.639 516.858 307.402Z" fill="white"/>
<path opacity="0.8" d="M500.989 335.797H494.872V338.035H500.989V335.797Z" fill="#EBEBEB"/>
<path opacity="0.8" d="M575.606 335.797H505.444V338.035H575.606V335.797Z" fill="#EBEBEB"/>
<path opacity="0.8" d="M590.979 335.797H579.363V338.035H590.979V335.797Z" fill="#35B5FF"/>
<path opacity="0.8" d="M613.594 335.797H593.512V338.035H613.594V335.797Z" fill="#A6A6A6"/>
<path opacity="0.8" d="M507.106 341.783H500.989V344.021H507.106V341.783Z" fill="#EBEBEB"/>
<path opacity="0.8" d="M557.448 341.783H511.409V344.021H557.448V341.783Z" fill="#A6A6A6"/>
<path opacity="0.8" d="M549.417 359.719H505.444V361.957H549.417V359.719Z" fill="#A6A6A6"/>
<path opacity="0.8" d="M542.257 347.758H511.409V349.996H542.257V347.758Z" fill="#35B5FF"/>
<path opacity="0.8" d="M598.899 353.732H587.131V355.971H598.899V353.732Z" fill="#A6A6A6"/>
<path opacity="0.8" d="M594.96 347.758H545.69V349.996H594.96V347.758Z" fill="#A6A6A6"/>
<path opacity="0.8" d="M564.253 365.693H505.444V367.931H564.253V365.693Z" fill="#35B5FF"/>
<path opacity="0.8" d="M624.085 341.783H592.215V344.021H624.085V341.783Z" fill="#35B5FF"/>
<path opacity="0.8" d="M589.683 341.783H560.345V344.021H589.683V341.783Z" fill="#EBEBEB"/>
<path opacity="0.8" d="M617.067 347.758H597.269V349.996H617.067V347.758Z" fill="#EBEBEB"/>
<path opacity="0.8" d="M507.106 347.758H500.989V349.996H507.106V347.758Z" fill="#EBEBEB"/>
<path opacity="0.8" d="M500.989 353.732H494.872V355.971H500.989V353.732Z" fill="#A6A6A6"/>
<path opacity="0.8" d="M541.589 353.732H505.444V355.971H541.589V353.732Z" fill="#EBEBEB"/>
<path opacity="0.8" d="M590.99 359.719H551.919V361.957H590.99V359.719Z" fill="#EBEBEB"/>
<path opacity="0.8" d="M618.374 359.719H593.512V361.957H618.374V359.719Z" fill="#35B5FF"/>
<path opacity="0.8" d="M584.285 353.732H545.265V355.971H584.285V353.732Z" fill="#35B5FF"/>
<path opacity="0.8" d="M500.989 359.719H494.872V361.957H500.989V359.719Z" fill="#EBEBEB"/>
<path opacity="0.8" d="M500.989 365.693H494.872V367.931H500.989V365.693Z" fill="#EBEBEB"/>
<path opacity="0.8" d="M498.649 329.915C498.699 329.964 498.739 330.024 498.766 330.089C498.793 330.154 498.807 330.224 498.807 330.294C498.807 330.365 498.793 330.435 498.766 330.5C498.739 330.565 498.699 330.624 498.649 330.674C498.552 330.771 498.421 330.826 498.284 330.826C498.141 330.828 498.003 330.773 497.9 330.674L495.54 328.284C495.536 328.276 495.533 328.268 495.533 328.259C495.533 328.25 495.536 328.241 495.54 328.234C495.531 328.211 495.531 328.185 495.54 328.163C495.54 328.163 495.54 328.163 495.54 328.112C495.54 328.061 495.54 328.112 495.54 328.112V328.051C495.54 328.051 495.54 328.051 495.54 328.001V327.899V327.828C495.54 327.828 495.54 327.828 495.54 327.758C495.54 327.758 495.54 327.758 495.591 327.707L497.95 325.307C498.051 325.209 498.185 325.154 498.325 325.154C498.465 325.154 498.599 325.209 498.7 325.307C498.75 325.357 498.789 325.416 498.816 325.481C498.843 325.546 498.857 325.616 498.857 325.686C498.857 325.757 498.843 325.827 498.816 325.892C498.789 325.957 498.75 326.016 498.7 326.066L496.674 328.092L498.649 329.915Z" fill="#35B5FF"/>
<path opacity="0.8" d="M500.786 330.188L502.811 325.287C502.835 325.232 502.869 325.181 502.911 325.139C502.954 325.097 503.004 325.064 503.06 325.041C503.115 325.019 503.175 325.007 503.235 325.008C503.294 325.008 503.354 325.02 503.409 325.044C503.464 325.067 503.514 325.101 503.556 325.143C503.598 325.186 503.632 325.237 503.654 325.292C503.677 325.348 503.688 325.407 503.688 325.467C503.687 325.527 503.675 325.586 503.652 325.641L501.626 330.543C501.592 330.627 501.533 330.699 501.457 330.75C501.381 330.8 501.292 330.827 501.201 330.826C501.145 330.84 501.086 330.84 501.029 330.826C500.968 330.805 500.911 330.77 500.865 330.725C500.818 330.68 500.782 330.625 500.759 330.564C500.736 330.503 500.726 330.438 500.731 330.373C500.735 330.308 500.754 330.245 500.786 330.188Z" fill="#35B5FF"/>
<path opacity="0.8" d="M507.753 328.212L507.702 328.273L505.343 330.663C505.239 330.762 505.101 330.816 504.958 330.815C504.818 330.815 504.684 330.76 504.583 330.663C504.533 330.613 504.494 330.554 504.467 330.489C504.44 330.423 504.426 330.354 504.426 330.283C504.426 330.213 504.44 330.143 504.467 330.078C504.494 330.012 504.533 329.953 504.583 329.903L506.609 327.878L504.583 325.852C504.533 325.803 504.494 325.743 504.467 325.678C504.44 325.613 504.426 325.543 504.426 325.473C504.426 325.402 504.44 325.332 504.467 325.267C504.494 325.202 504.533 325.143 504.583 325.093C504.685 324.994 504.821 324.939 504.963 324.939C505.105 324.939 505.241 324.994 505.343 325.093L507.702 327.493L507.753 327.544C507.753 327.544 507.753 327.594 507.753 327.615C507.753 327.635 507.753 327.615 507.753 327.615C507.75 327.641 507.75 327.669 507.753 327.696V327.908C507.753 327.908 507.753 327.969 507.753 327.989C507.775 328.022 507.786 328.061 507.786 328.101C507.786 328.14 507.775 328.179 507.753 328.212Z" fill="#35B5FF"/>
</g>
<path d="M635.511 485.563C635.511 485.563 634.678 498.509 632.075 498.694C631.728 498.72 618.877 498.72 618.877 498.72L602.47 498.629C602.47 498.629 602.575 494.824 607.373 494.018C612.167 493.216 620.197 489.97 623.102 483.868C626.157 477.453 635.511 485.563 635.511 485.563Z" fill="#060632"/>
<path d="M672.057 485.563C672.057 485.563 671.223 498.509 668.621 498.694C668.274 498.72 655.423 498.72 655.423 498.72L639.016 498.629C639.016 498.629 639.125 494.824 643.919 494.018C648.713 493.216 656.743 489.97 659.648 483.868C662.703 477.453 672.057 485.563 672.057 485.563Z" fill="#060632"/>
<path d="M577.086 260.306C577.21 259.776 577.492 259.283 577.904 258.873C578.316 258.464 578.845 258.152 579.44 257.968C580.678 257.595 582.77 257.595 583.171 256.478C583.38 255.957 583.572 255.748 583.084 255.391C582.58 255.064 581.972 254.876 581.34 254.854C580.335 254.809 579.335 255.006 578.453 255.422C577.572 255.838 576.845 256.457 576.354 257.208C576.075 257.67 575.639 258.28 575.046 258.131C574.914 258.083 574.794 258.012 574.695 257.922C574.596 257.832 574.52 257.726 574.471 257.61C573.774 256.21 574.75 254.631 575.674 253.365C576.314 252.296 577.254 251.38 578.411 250.699C579.849 250.151 581.441 249.97 582.996 250.177C586.134 250.371 589.447 250.565 592.114 252.173C592.812 252.59 593.439 253.082 594.137 253.499C595.988 254.509 598.003 255.281 600.117 255.793L598.181 261.557C598.156 261.663 598.088 261.758 597.99 261.825C597.932 261.847 597.87 261.858 597.807 261.858C597.744 261.858 597.681 261.847 597.624 261.825C593.788 261.036 589.377 260.336 585.542 259.844C582.712 259.642 579.863 259.797 577.086 260.306Z" fill="#F7B699"/>
<path d="M597.64 254.801C594.543 258.735 592.923 263.653 593.068 268.68L599.514 271.271C600.246 267.832 601.038 264.393 601.724 260.939C601.953 259.905 602.867 257.7 602.273 256.852C601.678 256.004 598.676 255.248 597.64 254.801Z" fill="white"/>
<path d="M621.57 262.669C619.808 261.595 617.979 260.635 616.095 259.795C612.815 258.291 609.37 257.118 606.09 255.989C604.838 255.514 603.556 255.117 602.254 254.801C598.674 258.622 597.41 265.106 597.846 270.537C601.622 273.846 607.143 275.802 611.296 278.405C613.57 279.951 615.983 281.286 618.502 282.391C621.044 283.486 623.873 283.728 626.565 283.083C627.266 282.921 627.926 282.614 628.501 282.181C629.077 281.749 629.555 281.2 629.905 280.571C630.238 279.741 630.371 278.844 630.296 277.953C630.192 274.888 629.343 271.895 627.823 269.232C626.303 266.569 624.157 264.316 621.57 262.669Z" fill="#A1A3A4"/>
<path d="M617.343 346.431C617.343 346.431 621.635 372.846 637.639 419.736C653.647 466.626 655.827 486.931 655.827 486.931L673 486.466C673 486.466 673.147 435.223 665.77 411.644C658.392 388.065 664.178 326.639 664.178 326.639L617.343 346.431Z" fill="#192B4F"/>
<path d="M608.988 328.086C608.988 328.086 608.381 367.889 615.536 416.761C622.692 465.633 620.266 486.381 620.266 486.381L637.402 486.929C637.402 486.929 647.642 438.039 644.708 413.578C641.77 389.116 658.732 329.636 658.732 329.636L608.988 328.086Z" fill="#233862"/>
<path d="M642.162 234.936L634.079 240.698L622.397 238.331C622.56 237.303 623.329 233.056 624.031 229.207C624.072 228.979 624.114 228.754 624.155 228.532C624.755 225.258 625.275 222.444 625.275 222.444L636.187 217.209L640.257 215.256C640.246 215.325 639.94 218.89 639.899 219.413C639.137 228.656 642.162 234.936 642.162 234.936Z" fill="#FFB27D"/>
<path d="M623.215 232.028C623.472 231.923 639.106 227.483 640.803 228.024C642.501 228.565 643.508 231.727 643.508 231.727L617.935 237.293C617.935 237.293 619.949 233.354 623.215 232.028Z" fill="#A1A3A4"/>
<path d="M665.317 332.996C662.665 344.631 618.561 346.011 607.193 335.45C605.899 334.245 605.835 328.643 606.325 321.092C607.28 306.334 610.342 284.138 610.463 272.801C610.52 267.322 611.304 261.724 612.345 256.638C614.559 245.798 617.939 237.292 617.939 237.292C617.939 237.292 639.48 230.59 643.512 231.73C662.929 237.219 667.965 321.36 665.317 332.996Z" fill="#8F9395"/>
<path d="M606.321 321.093C607.276 306.336 610.338 284.14 610.459 272.802C610.516 267.324 611.3 261.726 612.341 256.639L625.301 254.439C625.301 254.436 637.971 304.248 606.321 321.093Z" fill="#8F9395"/>
<path d="M639.08 219.578C636.685 223.992 627.757 227.808 624.034 229.209C624.076 228.98 624.117 228.755 624.159 228.534C624.758 225.259 625.279 222.446 625.279 222.446L636.191 217.211C638.601 217.174 640.068 217.762 639.08 219.578Z" fill="#EA8888"/>
<path d="M619.975 221.827C619.975 221.827 639.66 227.737 643.293 215.88C646.929 204.027 651.919 196.802 639.502 192.53C627.089 188.257 623.249 192.083 621.035 195.753C618.825 199.431 614.951 219.986 619.975 221.827Z" fill="#FFB27D"/>
<path d="M624.124 195.068C624.124 195.068 625.26 209.299 628.236 208.657C631.212 208.014 633.908 207.535 633.437 211.83C632.965 216.124 628.801 221.116 637.952 221.802C647.102 222.488 657.543 212.688 653.058 193.624C643.426 173.864 613.771 179.552 624.124 195.068Z" fill="#0B0754"/>
<path d="M554.343 282.16C553.637 280.884 553.21 279.466 553.092 278.003C552.974 276.54 553.169 275.068 553.661 273.691C553.805 273.169 554.061 272.687 554.41 272.28C554.759 271.873 555.192 271.552 555.677 271.341C556.297 271.207 556.942 271.268 557.528 271.515C558.115 271.763 558.616 272.186 558.967 272.729C559.639 273.832 560.177 275.016 560.567 276.254C561.097 277.554 561.784 278.779 562.612 279.901C563.609 280.949 564.351 282.225 564.776 283.624C564.868 284.197 564.825 284.783 564.653 285.335C564.48 285.887 564.182 286.389 563.783 286.798C560.804 289.835 555.795 284.799 554.343 282.16Z" fill="#F7B699"/>
<path d="M590.706 280.613L571.456 290.093L546 266.633L565.25 257.152L590.706 280.613Z" fill="#F4AE2D"/>
<path d="M588.352 279.644L571.195 287.741L548.353 267.587L565.526 259.506L588.352 279.644Z" fill="white"/>
<path d="M567.176 262.953L554.304 268.918L553.059 267.825L565.931 261.859L567.176 262.953Z" fill="#E1D2F4"/>
<path d="M576.588 270.009L561.586 275.977L560.117 274.885L575.119 268.918L576.588 270.009Z" fill="#E1D2F4"/>
<path d="M571.882 267.656L556.88 273.623L555.411 272.532L570.413 266.564L571.882 267.656Z" fill="#E1D2F4"/>
<path d="M581.294 272.73L564.15 280.683L562.471 279.244L579.615 271.271L581.294 272.73Z" fill="#E1D2F4"/>
<path d="M581.294 275.442L566.294 285.388L564.823 283.569L579.84 273.623L581.294 275.442Z" fill="#E1D2F4"/>
<path d="M583.646 277.416L568.629 285.388L567.176 283.93L582.193 275.977L583.646 277.416Z" fill="#E1D2F4"/>
<path d="M562.47 261.332L552.561 266.564L548.353 262.384L558.248 257.152L562.47 261.332Z" fill="#2C2C63"/>
<path d="M556.334 279.913C556.143 280.142 555.969 280.386 555.814 280.641C554.361 283.02 557.171 285.252 558.97 286.531C563.027 289.459 567.999 290.867 572.702 292.274C575.354 293.067 583.056 291.126 580.925 286.838C579.473 283.926 575.18 282.243 572.355 281.45C569.435 280.9 566.925 279.638 565.82 276.596C565.331 275.254 565.142 273.797 564.716 272.422C564.63 272.078 564.462 271.761 564.226 271.5C564.105 271.373 563.943 271.293 563.77 271.275C563.597 271.258 563.423 271.303 563.279 271.403C563.129 271.533 563.024 271.709 562.979 271.904C562.159 274.251 563.626 275.998 560.801 277.373C559.87 277.826 558.844 278.085 557.929 278.603C557.32 278.931 556.779 279.376 556.334 279.913Z" fill="#F7B699"/>
<path d="M570.818 278.328C567.849 282.661 566.637 287.815 567.397 292.885L574.906 294.799L576.138 284.101C576.257 283.034 577.01 280.697 576.257 279.897C575.505 279.097 572.032 278.673 570.818 278.328Z" fill="white"/>
<path d="M623.944 262.54C623.549 261.657 622.934 260.892 622.157 260.317C621.276 259.785 620.25 259.548 619.225 259.641C614.732 259.834 611.172 263.49 608.805 267.291C606.437 271.092 604.553 275.344 601.154 278.275C595.195 283.349 580.861 279.209 574.209 277.728C569.135 282.688 568.588 288.422 571.213 295.106C580.152 299.036 598.932 308.345 608.692 303.707C612.027 301.958 614.814 299.322 616.745 296.089C617.92 294.231 618.996 292.311 619.966 290.339C622.348 286.08 624.157 281.526 625.346 276.794C626.533 272.023 626.038 266.988 623.944 262.54Z" fill="#A1A3A4"/>
<path d="M632.098 236.835C630.355 235.066 628.081 233.957 625.645 233.687C623.21 233.418 620.757 234.004 618.688 235.35C616.261 236.911 614.983 240.128 613.798 242.679C612.272 245.8 610.972 249.031 609.908 252.348C608.815 255.793 608.056 259.296 606.926 262.76C605.24 268.47 603.054 273.933 601.776 279.72C600.275 285.48 600.475 291.569 602.351 297.213C605.37 305.093 615.465 300.905 619.947 296.527C623.819 292.72 625.671 287.353 627.356 282.175C629.042 276.998 630.82 271.744 632.543 266.548C634.371 261.443 635.53 256.111 635.988 250.692C636.303 245.496 635.414 240.452 632.098 236.835Z" fill="#A1A3A4"/>
<path d="M572.935 266.037L570.608 267.771L571.434 265.277L584.125 248.284C584.191 248.196 584.275 248.12 584.374 248.059C584.473 247.998 584.584 247.954 584.7 247.929C584.816 247.904 584.935 247.899 585.05 247.915C585.165 247.93 585.274 247.965 585.37 248.019C585.468 248.069 585.551 248.136 585.616 248.216C585.68 248.297 585.724 248.389 585.745 248.486C585.766 248.584 585.763 248.686 585.737 248.785C585.711 248.885 585.662 248.981 585.593 249.066L572.935 266.037Z" fill="#2C2C63"/>
<path d="M537.287 8.10156H403.479C400.718 8.10156 398.479 10.3401 398.479 13.1016V54.3657C398.479 57.1272 400.718 59.3657 403.479 59.3657H537.287C540.048 59.3657 542.287 57.1272 542.287 54.3657V13.1016C542.287 10.3401 540.048 8.10156 537.287 8.10156Z" fill="#35B5FF"/>
<path d="M417.722 45.1698V22.4243C417.722 21.8487 417.959 21.2966 418.382 20.8896C418.805 20.4826 419.378 20.2539 419.976 20.2539C420.574 20.2539 421.147 20.4826 421.57 20.8896C421.993 21.2966 422.23 21.8487 422.23 22.4243V31.6918H432.601V22.4243C432.601 21.8487 432.838 21.2966 433.261 20.8896C433.684 20.4826 434.257 20.2539 434.855 20.2539C435.453 20.2539 436.026 20.4826 436.449 20.8896C436.872 21.2966 437.109 21.8487 437.109 22.4243V45.1698C437.109 45.7454 436.872 46.2974 436.449 46.7044C436.026 47.1115 435.453 47.3402 434.855 47.3402C434.257 47.3402 433.684 47.1115 433.261 46.7044C432.838 46.2974 432.601 45.7454 432.601 45.1698V35.924H422.23V45.1698C422.23 45.7454 421.993 46.2974 421.57 46.7044C421.147 47.1115 420.574 47.3402 419.976 47.3402C419.378 47.3402 418.805 47.1115 418.382 46.7044C417.959 46.2974 417.722 45.7454 417.722 45.1698Z" fill="white"/>
<path d="M463.238 24.5946H456.971V45.1698C456.971 45.7454 456.733 46.2974 456.311 46.7044C455.888 47.1115 455.314 47.3402 454.717 47.3402C454.119 47.3402 453.545 47.1115 453.122 46.7044C452.7 46.2974 452.462 45.7454 452.462 45.1698V24.5946H446.15C445.552 24.5946 444.979 24.366 444.556 23.959C444.133 23.552 443.896 22.9999 443.896 22.4243C443.896 21.8487 444.133 21.2966 444.556 20.8896C444.979 20.4826 445.552 20.2539 446.15 20.2539H463.238C463.836 20.2539 464.409 20.4826 464.832 20.8896C465.255 21.2966 465.492 21.8487 465.492 22.4243C465.492 22.9999 465.255 23.552 464.832 23.959C464.409 24.366 463.836 24.5946 463.238 24.5946Z" fill="white"/>
<path d="M496.13 22.4243V45.1698C496.13 45.7454 495.892 46.2974 495.469 46.7044C495.047 47.1115 494.473 47.3402 493.875 47.3402C493.277 47.3402 492.704 47.1115 492.281 46.7044C491.858 46.2974 491.621 45.7454 491.621 45.1698V28.9571L485.917 36.6185C485.707 36.8881 485.435 37.1069 485.122 37.2576C484.809 37.4082 484.464 37.4867 484.114 37.4867C483.756 37.4935 483.402 37.4184 483.081 37.2674C482.759 37.1165 482.48 36.894 482.265 36.6185L476.539 28.9137V45.1264C476.539 45.702 476.302 46.254 475.879 46.6611C475.456 47.0681 474.883 47.2968 474.285 47.2968C473.687 47.2968 473.113 47.0681 472.691 46.6611C472.268 46.254 472.03 45.702 472.03 45.1264V22.4243C472.03 21.8487 472.268 21.2966 472.691 20.8896C473.113 20.4826 473.687 20.2539 474.285 20.2539H474.397C474.742 20.2631 475.079 20.3481 475.384 20.5024C475.689 20.6566 475.953 20.876 476.156 21.1438L484.136 31.7786L492.094 21.1438C492.302 20.8702 492.573 20.6473 492.886 20.4927C493.2 20.3382 493.546 20.2564 493.898 20.2539C494.492 20.2596 495.059 20.4908 495.477 20.8972C495.895 21.3036 496.13 21.8524 496.13 22.4243Z" fill="white"/>
<path d="M505.823 45.1698V22.4243C505.823 21.8487 506.061 21.2966 506.484 20.8896C506.906 20.4826 507.48 20.2539 508.078 20.2539C508.676 20.2539 509.249 20.4826 509.672 20.8896C510.095 21.2966 510.332 21.8487 510.332 22.4243V43.1296H521.176C521.774 43.1296 522.347 43.3583 522.77 43.7654C523.193 44.1724 523.43 44.7244 523.43 45.3C523.43 45.8756 523.193 46.4276 522.77 46.8347C522.347 47.2417 521.774 47.4704 521.176 47.4704H508.078C507.77 47.4709 507.465 47.4108 507.183 47.2937C506.9 47.1765 506.645 47.0049 506.434 46.7894C506.223 46.5738 506.06 46.3189 505.955 46.0404C505.85 45.7618 505.805 45.4656 505.823 45.1698Z" fill="white"/>
<path d="M185.089 200H110V249.806H185.089V200Z" fill="#FFA557"/>
<path d="M130.39 229.731C130.763 230.857 131.523 231.813 132.534 232.429C133.546 233.046 134.744 233.283 135.915 233.098C137.085 232.913 138.152 232.318 138.924 231.42C139.697 230.521 140.125 229.377 140.132 228.192V213.811C140.266 213.382 140.533 213.006 140.895 212.739C141.258 212.472 141.696 212.328 142.146 212.328C142.596 212.328 143.034 212.472 143.397 212.739C143.759 213.006 144.026 213.382 144.16 213.811V228.192C144.169 230.345 143.407 232.429 142.012 234.068C140.616 235.707 138.68 236.792 136.553 237.126C134.427 237.46 132.251 237.021 130.42 235.889C128.589 234.757 127.225 233.006 126.574 230.955C126.489 230.705 126.455 230.442 126.474 230.18C126.493 229.917 126.565 229.661 126.685 229.427C126.805 229.193 126.971 228.985 127.173 228.817C127.375 228.648 127.608 228.522 127.86 228.445C128.11 228.36 128.375 228.326 128.639 228.345C128.903 228.364 129.16 228.435 129.396 228.555C129.632 228.675 129.842 228.841 130.012 229.043C130.183 229.245 130.312 229.479 130.39 229.731Z" fill="white"/>
<path d="M149.22 230.83C149.537 230.448 149.992 230.207 150.486 230.159C150.98 230.112 151.473 230.262 151.856 230.577C153.812 232.222 156.243 233.198 158.794 233.36C160.408 233.389 161.991 232.917 163.327 232.011C163.778 231.737 164.156 231.359 164.428 230.907C164.7 230.455 164.858 229.944 164.888 229.417C164.901 229.004 164.783 228.598 164.55 228.257C164.283 227.812 163.915 227.436 163.475 227.161C161.934 226.294 160.247 225.715 158.498 225.453C156.884 225.186 155.31 224.711 153.817 224.04C152.444 223.442 151.273 222.461 150.443 221.214C149.884 220.324 149.591 219.293 149.6 218.241C149.637 217.193 149.92 216.168 150.425 215.249C150.931 214.329 151.645 213.542 152.51 212.949C154.362 211.654 156.577 210.982 158.836 211.03C161.702 211.177 164.457 212.184 166.743 213.919C167.151 214.193 167.433 214.618 167.528 215.1C167.623 215.582 167.523 216.083 167.249 216.491C167.121 216.701 166.951 216.882 166.75 217.025C166.549 217.167 166.321 217.266 166.081 217.318C165.84 217.369 165.592 217.371 165.35 217.323C165.109 217.275 164.88 217.179 164.677 217.039C163.011 215.69 160.973 214.881 158.836 214.72C157.388 214.692 155.97 215.128 154.787 215.964C154.387 216.201 154.051 216.532 153.808 216.929C153.565 217.326 153.424 217.777 153.396 218.241C153.377 218.599 153.473 218.954 153.67 219.253C153.927 219.631 154.257 219.953 154.64 220.202C156.034 221.019 157.574 221.556 159.173 221.784C160.902 222.094 162.587 222.611 164.192 223.323C165.655 223.965 166.911 225.002 167.819 226.317C168.379 227.254 168.678 228.325 168.683 229.417C168.649 230.539 168.346 231.635 167.799 232.615C167.252 233.595 166.478 234.429 165.541 235.047C163.587 236.445 161.238 237.183 158.836 237.156C155.429 236.996 152.169 235.722 149.558 233.529C149.358 233.374 149.191 233.181 149.065 232.962C148.94 232.742 148.86 232.5 148.828 232.249C148.797 231.999 148.815 231.744 148.883 231.5C148.95 231.257 149.065 231.029 149.22 230.83Z" fill="white"/>
<path d="M240.667 161.015L218.454 184.57L220.751 186.736L242.964 163.181L240.667 161.015Z" fill="#0C4982"/>
<path d="M242.354 185.061H219.606V188.217H242.354V185.061Z" fill="#455A64"/>
<path d="M242.354 160.502H219.606V163.659H242.354V160.502Z" fill="#455A64"/>
<path d="M220.755 160.991L218.458 163.156L240.667 186.715L242.964 184.55L220.755 160.991Z" fill="#455A64"/>
<path d="M240.669 185.544L218.456 209.1L220.753 211.265L242.966 187.71L240.669 185.544Z" fill="#AAB4BB"/>
<path d="M242.354 209.604H219.606V212.76H242.354V209.604Z" fill="#455A64"/>
<path d="M242.354 185.061H219.606V188.217H242.354V185.061Z" fill="#455A64"/>
<path d="M220.765 185.524L218.468 187.689L240.677 211.249L242.974 209.083L220.765 185.524Z" fill="#455A64"/>
<path d="M240.667 210.109L218.454 233.664L220.751 235.83L242.964 212.274L240.667 210.109Z" fill="#AAB4BB"/>
<path d="M242.354 234.162H219.606V237.319H242.354V234.162Z" fill="#455A64"/>
<path d="M242.354 209.604H219.606V212.76H242.354V209.604Z" fill="#455A64"/>
<path d="M220.771 210.083L218.474 212.248L240.682 235.807L242.979 233.642L220.771 210.083Z" fill="#455A64"/>
<path d="M240.669 234.65L218.456 258.205L220.753 260.371L242.966 236.815L240.669 234.65Z" fill="#AAB4BB"/>
<path d="M242.354 258.705H219.606V261.862H242.354V258.705Z" fill="#455A64"/>
<path d="M242.354 234.162H219.606V237.319H242.354V234.162Z" fill="#455A64"/>
<path d="M220.765 234.618L218.468 236.783L240.677 260.342L242.974 258.177L220.765 234.618Z" fill="#455A64"/>
<path d="M240.668 259.216L218.455 282.771L220.752 284.937L242.965 261.382L240.668 259.216Z" fill="#AAB4BB"/>
<path d="M242.354 283.248H219.606V286.405H242.354V283.248Z" fill="#455A64"/>
<path d="M242.354 258.705H219.606V261.862H242.354V258.705Z" fill="#455A64"/>
<path d="M220.761 259.165L218.464 261.33L240.673 284.889L242.97 282.724L220.761 259.165Z" fill="#455A64"/>
<path d="M242.525 284.857L220.185 308.492L222.489 310.67L244.829 287.035L242.525 284.857Z" fill="#AAB4BB"/>
<path d="M242.354 307.807H219.606V310.963H242.354V307.807Z" fill="#455A64"/>
<path d="M242.354 283.248H219.606V286.405H242.354V283.248Z" fill="#455A64"/>
<path d="M220.766 283.725L218.469 285.891L240.678 309.45L242.974 307.285L220.766 283.725Z" fill="#455A64"/>
<path d="M242.572 309.492L220.231 333.127L222.536 335.305L244.876 311.67L242.572 309.492Z" fill="#AAB4BB"/>
<path d="M242.354 332.35H219.606V335.506H242.354V332.35Z" fill="#455A64"/>
<path d="M242.354 307.807H219.606V310.963H242.354V307.807Z" fill="#455A64"/>
<path d="M220.761 308.259L218.464 310.424L240.673 333.983L242.97 331.818L220.761 308.259Z" fill="#455A64"/>
<path d="M240.672 332.851L218.459 356.406L220.756 358.572L242.968 335.017L240.672 332.851Z" fill="#AAB4BB"/>
<path d="M242.354 356.893H219.606V360.049H242.354V356.893Z" fill="#455A64"/>
<path d="M242.354 332.35H219.606V335.506H242.354V332.35Z" fill="#455A64"/>
<path d="M220.767 332.819L218.47 334.984L240.679 358.544L242.975 356.378L220.767 332.819Z" fill="#455A64"/>
<path d="M240.675 357.38L218.462 380.936L220.758 383.101L242.971 359.546L240.675 357.38Z" fill="#AAB4BB"/>
<path d="M242.354 381.449H219.606V384.606H242.354V381.449Z" fill="#455A64"/>
<path d="M242.354 356.893H219.606V360.049H242.354V356.893Z" fill="#455A64"/>
<path d="M220.776 357.368L218.479 359.533L240.688 383.092L242.985 380.927L220.776 357.368Z" fill="#455A64"/>
<path d="M240.669 381.953L218.464 405.516L220.761 407.68L242.966 384.117L240.669 381.953Z" fill="#AAB4BB"/>
<path d="M242.354 405.994H219.606V409.151H242.354V405.994Z" fill="#455A64"/>
<path d="M242.354 381.449H219.606V384.606H242.354V381.449Z" fill="#455A64"/>
<path d="M220.757 381.917L218.46 384.082L240.669 407.641L242.966 405.476L220.757 381.917Z" fill="#455A64"/>
<path d="M240.663 406.503L218.458 430.066L220.755 432.231L242.96 408.668L240.663 406.503Z" fill="#AAB4BB"/>
<path d="M242.354 430.551H219.606V433.707H242.354V430.551Z" fill="#455A64"/>
<path d="M242.354 405.994H219.606V409.151H242.354V405.994Z" fill="#455A64"/>
<path d="M220.776 406.462L218.479 408.627L240.688 432.186L242.985 430.021L220.776 406.462Z" fill="#455A64"/>
<path d="M246.916 444.51V430.219H214.105V444.51H246.916Z" fill="#3C4347"/>
<path d="M222.314 431.13L222.314 161.805H214.09L214.09 431.13H222.314Z" fill="#3C4347"/>
<path d="M246.916 431.116L246.916 161.791H238.691L238.691 431.116H246.916Z" fill="#3C4347"/>
<path d="M463.085 159.865L438.498 135.64L231.016 96.9788L167.956 135.828L166.306 133.135L230.394 93.6484L440.033 132.715L465.3 157.62L463.085 159.865Z" fill="#3C4347"/>
<path d="M256.258 137.797L231.008 103.458L206.829 137.74L201.635 134.244L230.892 92.7578L261.38 134.187L256.258 137.797Z" fill="#707C85"/>
<path d="M415.371 138.451L413.206 140.748L436.765 162.957L438.931 160.66L415.371 138.451Z" fill="#707C85"/>
<path d="M440.395 139.043H437.238V161.791H440.395V139.043Z" fill="#455A64"/>
<path d="M415.852 139.043H412.695V161.791H415.852V139.043Z" fill="#455A64"/>
<path d="M436.738 138.416L413.183 160.629L415.348 162.925L438.904 140.712L436.738 138.416Z" fill="#455A64"/>
<path d="M390.808 138.455L388.643 140.752L412.202 162.961L414.367 160.664L390.808 138.455Z" fill="#707C85"/>
<path d="M415.852 139.043H412.695V161.791H415.852V139.043Z" fill="#455A64"/>
<path d="M391.309 139.043H388.152V161.791H391.309V139.043Z" fill="#455A64"/>
<path d="M412.193 138.412L388.638 160.625L390.803 162.922L414.359 140.709L412.193 138.412Z" fill="#455A64"/>
<path d="M366.269 138.461L364.104 140.758L387.663 162.967L389.828 160.67L366.269 138.461Z" fill="#707C85"/>
<path d="M391.309 139.043H388.152V161.791H391.309V139.043Z" fill="#455A64"/>
<path d="M366.75 139.043H363.594V161.791H366.75V139.043Z" fill="#455A64"/>
<path d="M387.646 138.412L364.091 160.625L366.256 162.922L389.812 140.709L387.646 138.412Z" fill="#455A64"/>
<path d="M341.716 138.451L339.551 140.748L363.11 162.957L365.275 160.66L341.716 138.451Z" fill="#707C85"/>
<path d="M366.75 139.043H363.594V161.791H366.75V139.043Z" fill="#455A64"/>
<path d="M342.207 139.043H339.051V161.791H342.207V139.043Z" fill="#455A64"/>
<path d="M363.09 138.42L339.535 160.633L341.701 162.929L365.256 140.716L363.09 138.42Z" fill="#455A64"/>
<path d="M317.167 138.451L315.002 140.748L338.561 162.957L340.726 160.66L317.167 138.451Z" fill="#707C85"/>
<path d="M342.207 139.043H339.051V161.791H342.207V139.043Z" fill="#455A64"/>
<path d="M317.65 139.043H314.493V161.791H317.65V139.043Z" fill="#455A64"/>
<path d="M338.544 138.418L314.988 160.631L317.154 162.927L340.709 140.714L338.544 138.418Z" fill="#455A64"/>
<path d="M292.614 138.457L290.449 140.754L314.008 162.963L316.174 160.666L292.614 138.457Z" fill="#707C85"/>
<path d="M317.65 139.043H314.493V161.791H317.65V139.043Z" fill="#455A64"/>
<path d="M293.106 139.043H289.949V161.791H293.106V139.043Z" fill="#455A64"/>
<path d="M314.013 138.402L290.458 160.615L292.624 162.912L316.179 140.699L314.013 138.402Z" fill="#455A64"/>
<path d="M268.051 138.461L265.886 140.758L289.445 162.967L291.61 160.67L268.051 138.461Z" fill="#707C85"/>
<path d="M293.106 139.043H289.949V161.791H293.106V139.043Z" fill="#455A64"/>
<path d="M268.563 139.043H265.406V161.791H268.563V139.043Z" fill="#455A64"/>
<path d="M289.457 138.424L265.901 160.637L268.067 162.933L291.622 140.72L289.457 138.424Z" fill="#455A64"/>
<path d="M243.512 138.449L241.347 140.746L264.906 162.955L267.071 160.658L243.512 138.449Z" fill="#707C85"/>
<path d="M268.563 139.043H265.406V161.791H268.563V139.043Z" fill="#455A64"/>
<path d="M244.005 139.043H240.849V161.791H244.005V139.043Z" fill="#455A64"/>
<path d="M264.911 138.408L241.355 160.621L243.521 162.918L267.076 140.705L264.911 138.408Z" fill="#455A64"/>
<path d="M218.959 138.439L216.794 140.736L240.353 162.945L242.518 160.648L218.959 138.439Z" fill="#0C4982"/>
<path d="M244.005 139.043H240.849V161.791H244.005V139.043Z" fill="#455A64"/>
<path d="M219.461 139.043H216.305V161.791H219.461V139.043Z" fill="#455A64"/>
<path d="M240.354 138.418L216.799 160.631L218.964 162.927L242.52 140.714L240.354 138.418Z" fill="#455A64"/>
<path d="M194.41 138.457L192.245 140.754L215.804 162.963L217.97 160.666L194.41 138.457Z" fill="#707C85"/>
<path d="M219.461 139.043H216.305V161.791H219.461V139.043Z" fill="#455A64"/>
<path d="M194.918 139.043H191.762V161.791H194.918V139.043Z" fill="#455A64"/>
<path d="M215.809 138.416L192.254 160.629L194.42 162.925L217.975 140.713L215.809 138.416Z" fill="#455A64"/>
<path d="M169.858 138.447L167.692 140.744L191.252 162.953L193.417 160.656L169.858 138.447Z" fill="#707C85"/>
<path d="M194.918 139.043H191.762V161.791H194.918V139.043Z" fill="#455A64"/>
<path d="M170.361 139.043H167.204V161.791H170.361V139.043Z" fill="#455A64"/>
<path d="M191.263 138.43L167.708 160.643L169.874 162.939L193.429 140.726L191.263 138.43Z" fill="#455A64"/>
<path d="M166.277 133.092H152V165.903H166.277V133.092Z" fill="#455A64"/>
<path d="M180.569 133.092H166.277V165.903H180.569V133.092Z" fill="#455A64"/>
<path d="M199.45 165.904H172.04V182.267H199.45V165.904Z" fill="#455A64"/>
<path d="M465.301 157.68H166.277V165.904H465.301V157.68Z" fill="#455A64"/>
<path d="M448.244 141.316H166.277V133.092H440.207L448.244 141.316Z" fill="#455A64"/>
<path d="M445.782 139.043H442.625V161.791H445.782V139.043Z" fill="#455A64"/>
<path d="M397.665 169.264H394.509V267.843H397.665V169.264Z" fill="#0C4982"/>
<path d="M424.367 170.305H421.21V268.884H424.367V170.305Z" fill="#0C4982"/>
<path d="M430.448 165.904H388.848V172.608H430.448V165.904Z" fill="#455A64"/>
<path d="M411.233 275.676L410.885 282.67L409.871 281.468C410.994 281.751 412.064 282.21 413.042 282.829C414.06 283.44 414.918 284.284 415.547 285.29C416.15 286.301 416.453 287.462 416.422 288.639C416.391 289.815 416.028 290.958 415.374 291.937C414.761 292.857 413.923 293.607 412.94 294.113C411.957 294.62 410.861 294.868 409.756 294.833C408.702 294.751 407.681 294.426 406.774 293.883C405.867 293.341 405.098 292.595 404.528 291.705C405.145 292.496 405.936 293.134 406.841 293.569C407.745 294.004 408.738 294.223 409.741 294.21C410.689 294.154 411.606 293.859 412.409 293.353C413.212 292.847 413.873 292.145 414.331 291.314C414.755 290.534 414.949 289.649 414.893 288.763C414.837 287.877 414.532 287.025 414.013 286.304C412.831 284.967 411.206 284.103 409.437 283.871L408.481 283.727V282.67L408.134 275.676H411.233Z" fill="#0C4982"/>
<path d="M389.144 302.25L404.117 293.135L414.88 308.76" stroke="#35B5FF" stroke-width="3" stroke-linecap="round" stroke-linejoin="round"/>
<path d="M430.448 261.312V272.737L409.655 277.675L388.862 272.737V261.312H430.448Z" fill="#455A64"/>
<path d="M398.39 268.016C398.39 268.495 398.248 268.963 397.981 269.361C397.715 269.759 397.337 270.069 396.894 270.251C396.451 270.434 395.964 270.481 395.495 270.386C395.025 270.292 394.594 270.06 394.257 269.721C393.919 269.381 393.69 268.949 393.598 268.479C393.507 268.009 393.557 267.522 393.742 267.08C393.927 266.639 394.239 266.262 394.639 265.998C395.039 265.734 395.507 265.595 395.986 265.598C396.303 265.598 396.617 265.66 396.91 265.782C397.202 265.904 397.468 266.082 397.691 266.307C397.915 266.532 398.091 266.798 398.211 267.092C398.331 267.385 398.392 267.699 398.39 268.016Z" fill="#0C4982"/>
<path d="M425.743 268.016C425.743 268.494 425.601 268.962 425.335 269.359C425.069 269.757 424.692 270.067 424.25 270.25C423.808 270.433 423.322 270.481 422.853 270.387C422.384 270.294 421.953 270.064 421.615 269.726C421.276 269.387 421.046 268.957 420.953 268.488C420.859 268.018 420.907 267.532 421.09 267.09C421.273 266.649 421.583 266.271 421.981 266.005C422.379 265.739 422.846 265.598 423.324 265.598C423.642 265.598 423.956 265.66 424.25 265.782C424.543 265.903 424.81 266.081 425.034 266.306C425.259 266.53 425.437 266.797 425.558 267.09C425.68 267.384 425.743 267.698 425.743 268.016Z" fill="#0C4982"/>
<path d="M236.041 95.3141C236.044 96.3686 235.734 97.4003 235.15 98.2784C234.566 99.1566 233.735 99.8419 232.762 100.247C231.788 100.653 230.716 100.761 229.682 100.557C228.647 100.353 227.696 99.8462 226.95 99.1016C226.203 98.357 225.694 97.4075 225.487 96.3735C225.28 95.3394 225.385 94.2673 225.788 93.2928C226.191 92.3183 226.874 91.4852 227.75 90.899C228.627 90.3129 229.658 90 230.712 90C232.123 90 233.476 90.5594 234.475 91.5556C235.474 92.5518 236.037 93.9034 236.041 95.3141Z" fill="#FFA557"/>
<path d="M233.203 95.3148C233.203 95.8073 233.057 96.2889 232.783 96.6984C232.509 97.108 232.12 97.4272 231.665 97.6157C231.21 97.8042 230.709 97.8535 230.226 97.7574C229.743 97.6613 229.299 97.4241 228.951 97.0758C228.603 96.7275 228.366 96.2838 228.27 95.8006C228.173 95.3175 228.223 94.8168 228.411 94.3617C228.6 93.9066 228.919 93.5176 229.329 93.2439C229.738 92.9703 230.22 92.8242 230.712 92.8242C231.373 92.8242 232.006 93.0866 232.473 93.5537C232.94 94.0207 233.203 94.6542 233.203 95.3148Z" fill="white"/>
<path d="M253.475 444.512H207.53V455.372H253.475V444.512Z" fill="#707C85"/>
<path d="M263.436 455.369H197.582V476.669H263.436V455.369Z" fill="#3C4347"/>
<path d="M256.464 179.192C256.867 182.191 254.534 184.857 251.508 184.857H212.993C210.232 184.857 207.993 182.618 207.993 179.857V135.471C207.993 132.709 210.232 130.471 212.993 130.471H240.109C242.828 130.475 245.454 131.464 247.498 133.256C249.543 135.048 250.869 137.521 251.23 140.216L256.464 179.192Z" fill="#FFA557"/>
<path d="M243.846 168.349H220.794C220.544 168.353 220.295 168.319 220.056 168.248C219.522 168.085 219.054 167.755 218.72 167.307C218.387 166.859 218.205 166.316 218.202 165.758V141.682C218.202 138.921 220.441 136.682 223.202 136.682H234.593C235.148 136.677 235.701 136.73 236.244 136.841C237.469 137.054 238.638 137.517 239.676 138.202C240.392 138.688 241.036 139.273 241.587 139.94C242.703 141.273 243.421 142.894 243.658 144.617L246.409 165.41C246.458 165.776 246.429 166.148 246.323 166.502C246.217 166.856 246.037 167.183 245.794 167.461C245.551 167.739 245.252 167.962 244.916 168.116C244.58 168.269 244.215 168.349 243.846 168.349Z" fill="#FEEAD9"/>
<g opacity="0.4">
<path d="M241.442 153.176C241.44 153.866 241.164 154.527 240.675 155.015L227.339 168.35H220.866C220.617 168.354 220.368 168.32 220.128 168.249L237.026 151.351C237.391 151.015 237.845 150.792 238.334 150.707C238.823 150.621 239.326 150.678 239.783 150.87C240.24 151.062 240.633 151.382 240.914 151.79C241.196 152.199 241.354 152.68 241.37 153.176H241.442Z" fill="white"/>
<path d="M241.587 139.97L218.274 163.326V159.677L239.748 138.203C240.441 138.703 241.06 139.298 241.587 139.97Z" fill="white"/>
<path d="M236.244 136.842L222.952 150.105C222.581 150.426 222.102 150.594 221.613 150.576C221.123 150.558 220.658 150.355 220.311 150.009C219.965 149.662 219.762 149.197 219.744 148.708C219.727 148.218 219.895 147.739 220.215 147.369L230.93 136.668H234.594C235.148 136.668 235.702 136.726 236.244 136.842Z" fill="white"/>
</g>
<path d="M465.868 320.55L341.381 291.172C338.693 290.538 336 292.202 335.366 294.89L318.384 366.85C317.75 369.537 319.415 372.23 322.102 372.864L446.589 402.242C449.277 402.876 451.969 401.212 452.604 398.524L469.586 326.564C470.22 323.877 468.555 321.184 465.868 320.55Z" fill="#1B87C6"/>
<path d="M404.634 352.934C403.107 355.627 400.815 357.806 398.05 359.196C395.284 360.586 392.168 361.125 389.096 360.744C386.024 360.364 383.134 359.081 380.791 357.058C378.448 355.035 376.757 352.363 375.933 349.38C375.108 346.396 375.187 343.235 376.159 340.296C377.13 337.357 378.952 334.772 381.392 332.869C383.833 330.965 386.783 329.827 389.87 329.6C392.958 329.372 396.043 330.066 398.736 331.591C400.525 332.605 402.097 333.961 403.362 335.583C404.626 337.204 405.559 339.059 406.107 341.041C406.655 343.023 406.807 345.093 406.554 347.134C406.301 349.175 405.649 351.146 404.634 352.934Z" fill="#9DD6F8"/>
<path d="M397.574 346.697L386.726 350.694L388.662 338.737L397.574 346.697Z" fill="white"/>
<path d="M453.73 394.389L319.627 362.225L317.336 371.778L451.439 403.942L453.73 394.389Z" fill="#9DD6F8"/>
<path d="M439.215 395.376L326.383 368.15L325.887 370.205L438.719 397.431L439.215 395.376Z" fill="#FBFBFB"/>
<path d="M347.247 374.292C347.161 374.649 347.154 375.02 347.225 375.38L325.863 370.221L326.361 368.154L347.737 373.312C347.497 373.595 347.329 373.931 347.247 374.292Z" fill="#005FB7"/>
<path d="M351.938 375.419C351.857 375.778 351.694 376.113 351.462 376.398C351.171 376.746 350.789 377.005 350.359 377.147C349.929 377.289 349.468 377.308 349.027 377.202C348.587 377.096 348.185 376.87 347.866 376.547C347.548 376.225 347.325 375.821 347.225 375.379C347.153 375.019 347.16 374.648 347.246 374.291C347.328 373.93 347.496 373.594 347.736 373.311C348.021 372.963 348.399 372.702 348.826 372.559C349.252 372.416 349.711 372.396 350.148 372.502C350.589 372.608 350.991 372.836 351.309 373.159C351.626 373.483 351.847 373.889 351.945 374.332C352.021 374.69 352.019 375.062 351.938 375.419Z" fill="#005FB7"/>
<path d="M68.8239 339.517C68.8239 339.517 64.3973 331.407 99.4021 333.222L118.849 396.23L85.9187 395.712L68.8239 339.517Z" fill="#E0E0FF"/>
<path d="M151.577 374.064C146.561 382.794 140.251 386.166 140.251 386.166H114C114 386.166 155.404 367.401 151.577 374.064Z" fill="#233862"/>
<path d="M70.9873 470.673H65.9736L77.9012 384.934H84.4707L70.9873 470.673Z" fill="#005FB7"/>
<path d="M129.413 470.673H134.427L122.499 384.934H115.93L129.413 470.673Z" fill="#005FB7"/>
<path d="M129.892 382.898H79.834V388.084H129.892V382.898Z" fill="#005FB7"/>
<path d="M122.124 437.174C121.482 437.909 121.4 438.733 121.717 439.612C121.717 439.615 121.719 439.621 121.722 439.623C122.311 441.25 124.254 443.063 126.51 444.877C126.797 445.109 127.055 445.323 127.278 445.519C127.337 445.572 127.395 445.621 127.451 445.674C127.498 445.715 127.539 445.756 127.583 445.794C129.686 447.734 128.895 448.179 132.678 452.118C136.991 456.604 139.959 456.686 140.803 456.275C141.518 455.927 140.065 453.547 138.459 450.872C138.38 450.743 138.304 450.611 138.225 450.483C138.011 450.128 137.797 449.765 137.586 449.407C135.702 446.19 136.185 444.678 136.631 439.887C136.994 435.996 142.687 418.143 142.687 418.143L134.424 416.719C134.424 416.719 131.937 430.936 129.194 433.124C127.729 434.291 126.088 434.305 124.679 435.17C124.579 435.231 124.483 435.293 124.386 435.354C123.586 435.888 122.768 436.436 122.124 437.174Z" fill="#FFB27D"/>
<path d="M122.124 437.174C121.482 437.91 121.4 438.733 121.717 439.612C121.717 439.615 121.719 439.621 121.722 439.624C122.443 441.247 124.336 443.052 126.519 444.86C126.803 445.097 127.055 445.314 127.281 445.516C127.339 445.569 127.398 445.619 127.454 445.671C127.501 445.712 127.542 445.754 127.586 445.792C129.689 447.731 128.898 448.177 132.681 452.115C136.994 456.601 139.962 456.683 140.806 456.273C141.521 455.924 140.068 453.545 138.462 450.869C137.621 450.562 133.724 448.977 130.776 445.206C128.18 441.892 126.449 437.637 124.682 435.17C124.582 435.231 124.486 435.293 124.389 435.355C123.586 435.888 122.768 436.436 122.124 437.174Z" fill="#233862"/>
<path d="M191.351 430.715C191.86 433.264 195.497 432.839 199.558 431.848C203.619 430.855 202.655 432.036 208.436 431.397C214.217 430.759 215.969 428.602 216.145 427.743C216.303 426.982 213.447 426.712 210.382 426.357C209.998 426.314 209.608 426.267 209.221 426.22C205.761 425.786 203.229 423.553 200.088 421.719C197.111 419.982 192.669 412.908 192.669 412.908L184.74 413.535C184.74 413.535 188.901 419.856 190.51 422.601C191.456 424.216 191.406 426.355 191.289 428.004C191.228 428.898 191.169 429.815 191.351 430.715Z" fill="#FFB27D"/>
<path d="M199.558 431.845C203.619 430.851 202.655 432.032 208.436 431.393C214.217 430.755 215.969 428.598 216.145 427.739C216.303 426.978 213.447 426.708 210.382 426.354L210.352 426.412C210.352 426.412 206.886 428.87 202.075 428.985C198.154 429.081 193.999 427.956 191.289 428C191.227 428.897 191.169 429.814 191.35 430.714C191.86 433.263 195.497 432.838 199.558 431.845Z" fill="#233862"/>
<path d="M158.369 381.32L150.959 401.262L141.284 427.302C141.284 427.302 138.658 427.557 136.144 426.833C133.829 426.165 131.172 424.413 131.172 424.413C131.172 424.413 133.859 396.454 138.869 380.406C140.153 376.286 141.594 372.954 143.182 371.079C150.953 361.896 158.369 381.32 158.369 381.32Z" fill="#233862"/>
<path d="M153.328 348.745C148.473 347.18 134.625 349.19 120.713 351.912L117.8 347.107L87.7547 344.76C87.7547 344.76 77.8392 366.747 83.2687 380.756C84.0657 382.816 86.0406 383.683 88.7421 383.727L88.7451 383.73C88.7451 383.73 106.674 384.167 112.482 384.167C127.426 384.167 144.107 373.894 146.263 373.463C149.794 372.757 151.209 379.822 154.74 387.238C158.271 394.654 187.941 420.087 187.941 420.087C187.941 420.087 192.501 420.131 194.385 419.425C196.409 418.666 197.151 417.679 197.151 417.679C197.151 417.679 164.275 352.278 153.328 348.745Z" fill="#2B478B"/>
<path d="M112.115 259.778C109.861 258.436 107.667 258.243 106.336 258.287C105.378 258.319 104.417 258.225 103.468 258.099C92.0813 256.57 85.2278 273.113 84.8263 278.127C84.0821 287.368 79.1947 288.775 72.3147 294.562C58.5197 306.165 62.5633 319.65 70.1084 324.657C74.6354 327.663 82.6141 324.657 82.6141 324.657C82.7254 324.736 104.432 312.523 115.133 306.631C131.172 304.354 118.561 263.617 112.115 259.778Z" fill="#233862"/>
<path d="M106.163 301.618C106.21 301.647 100.898 303.461 97.3463 301.887C94.006 300.411 91.4743 294.914 91.5242 294.911C93.0449 294.84 94.7121 293.513 95.9984 284.793L96.646 285.024L107.528 288.939C107.528 288.939 106.74 292.432 106.23 295.755C105.8 298.55 105.568 301.225 106.163 301.618Z" fill="#FFB27D"/>
<path d="M107.529 288.943C107.529 288.943 106.741 292.436 106.231 295.758C99.981 294.633 97.5285 288.407 96.6465 285.025L107.529 288.943Z" fill="#ED975D"/>
<path d="M109.149 292.408C109.149 292.408 94.2608 290.409 95.6468 281.156C97.0327 271.903 96.0453 265.413 105.612 266.297C115.176 267.182 116.492 270.989 116.779 274.191C117.066 277.394 113.058 292.689 109.149 292.408Z" fill="#FFB27D"/>
<path d="M116.234 269.12C116.234 269.12 106.702 277.333 100.221 277.996C93.7367 278.658 91.2842 276.577 91.2842 276.577C91.2842 276.577 95.1051 273.404 97.4052 268.285C98.0821 266.776 99.5149 265.739 101.165 265.598C105.791 265.2 114.567 265.015 116.234 269.12Z" fill="#233862"/>
<path d="M110.277 268.385C110.277 268.385 113.465 271.467 114.47 273.755C115.44 275.962 115.73 281.239 114.96 283.337C114.96 283.337 119.926 273.676 117.116 268.985C114.13 264.007 110.277 268.385 110.277 268.385Z" fill="#233862"/>
<path d="M118.701 323.553C118.25 353.693 118.578 347.393 115.282 350.253C114.487 350.941 112.255 351.351 109.316 351.545C100.074 352.157 83.8296 350.636 83.2114 348.928C81.0812 343.018 82.5843 341.184 80.8058 332.136C80.6212 331.175 80.3897 330.131 80.1231 328.997C78.6404 322.783 77.1959 320.67 82.4584 310.687C87.2286 301.645 92.1864 294.305 92.6317 294.571C105.22 302.043 106.233 295.764 106.233 295.764C106.233 295.764 118.921 308.85 118.701 323.553Z" fill="#FBFBFB"/>
<path d="M150.959 401.263L141.284 427.303C141.284 427.303 138.658 427.558 136.144 426.834C133.829 426.166 131.172 424.414 131.172 424.414C131.172 424.414 133.859 396.455 138.869 380.406L150.959 401.263Z" fill="#2B478B"/>
<path d="M106.228 295.76C106.228 295.76 119.179 297.954 120.699 303.533C122.22 309.109 131.169 341.892 131.169 341.892C131.169 341.892 124.585 343.075 121.543 340.034C118.502 336.992 110.96 311.814 110.96 311.814L106.228 295.76Z" fill="#FBFBFB"/>
<path d="M109.313 351.544C100.071 352.156 83.8266 350.635 83.2084 348.927C81.0782 343.017 82.5813 341.183 80.8027 332.135L85.2595 319.582C85.2595 319.582 84.5211 333.559 88.6437 337.236C92.7606 340.913 105.521 344.333 107.522 347.403C108.492 348.877 109.128 350.357 109.313 351.544Z" fill="#AAB4BB"/>
<path d="M98.7236 345.666C98.7236 345.666 107.842 343.635 109.313 344.444C110.784 345.253 114.379 348.201 114.83 349.226C115.282 350.252 111.555 348.447 110.344 348.121C109.559 347.911 107.493 348.628 106.471 348.968C102.167 350.401 99.5323 349.666 99.5323 349.666L98.7236 345.666Z" fill="#FFB27D"/>
<path d="M92.6203 294.562C92.6203 294.562 80.3783 295.316 76.1413 301.229C70.1756 309.55 58.3408 345.007 65.1241 349.737C72.7629 355.064 99.887 351.128 99.887 351.128C99.887 351.128 100.789 346.909 99.5325 344.87C98.2754 342.83 77.8672 339.531 76.9266 338.59C75.986 337.65 88.6998 320.222 88.6998 317.397C88.6998 314.572 92.6203 294.562 92.6203 294.562Z" fill="#FBFBFB"/>
<path d="M109.756 346.982C109.756 346.982 111.666 349.447 112.293 349.74C112.92 350.033 113.325 349.959 113.325 349.959L112.038 347.642L109.756 346.982Z" fill="#FFB27D"/>
<path d="M109.313 344.445L114.869 347.144C114.869 347.144 114.632 347.531 113.949 347.498C113.266 347.466 111.54 346.836 111.54 346.836L109.313 344.445Z" fill="#FFB27D"/>
<path d="M112.773 349.21H156.259L169.342 316.682H125.923L112.773 349.21Z" fill="#F99746"/>
<path d="M156.77 347.943H99.3457V349.211H156.259L156.77 347.943Z" fill="#ED7D2B"/>
<path d="M145.282 332.946C145.61 331.803 144.949 330.875 143.806 330.875C142.663 330.875 141.468 331.803 141.141 332.946C140.813 334.088 141.474 335.017 142.617 335.017C143.762 335.017 144.954 334.088 145.282 332.946Z" fill="white"/>
<path d="M79.8337 382.9L64.9336 327.689C64.5436 326.248 62.992 325.464 61.6001 326.003C60.4219 326.461 59.7685 327.725 60.0755 328.951L73.6252 383.147C74.3408 386.008 76.8881 388.032 79.8358 388.082V382.9H79.8337Z" fill="#005FB7"/>
<path d="M827.062 478.089C827.062 478.089 827.732 472.865 829.282 469.759C830.832 466.653 840.705 468.63 840.705 468.63C840.705 468.63 842.681 470.326 843.103 478.229L827.062 478.089Z" fill="#3C4347"/>
<path d="M793.421 478.017C795.741 476.598 794.422 466.028 794.422 466.028C794.422 466.028 783.61 457.372 782.124 464.001C780.638 470.626 771.851 473.601 766.853 474.413C763.4 474.975 762.331 476.884 762 478.017H793.421Z" fill="#3C4347"/>
<path d="M815.814 401.126C815.375 403.552 815.094 405.543 815.021 406.971C814.015 426.588 798.518 471.443 795.75 472.486C791.463 474.105 784.707 470.663 781.172 469.539C779.708 469.071 778.721 467.593 779.047 466.092C786.723 430.787 789.542 379.95 790.566 349.855C791.082 334.696 793.683 324.221 793.683 324.221C793.683 324.221 831.479 314.132 831.701 326.896C831.901 338.192 819.186 382.494 815.814 401.126Z" fill="#8B9CA9"/>
<path d="M815.814 401.126L790.565 349.855C791.082 334.696 793.683 324.221 793.683 324.221C793.683 324.221 831.479 314.132 831.701 326.896C831.901 338.192 819.186 382.494 815.814 401.126Z" fill="#70818C"/>
<path d="M807.404 326.936L827.383 471.85C827.383 471.85 836.156 473.967 842.98 472.271C842.98 472.271 848.83 395.198 848.341 376.566C847.851 357.934 852.537 326.709 847.271 323.263C842.01 319.826 807.404 326.936 807.404 326.936Z" fill="#8B9CA9"/>
<path d="M848.681 289.73L851.173 324.523C851.268 325.834 850.43 327.022 849.17 327.389C846.383 328.201 843.17 328.763 836.971 330.046C831.149 331.257 823.318 332.327 813.694 332.386C798.387 332.481 792.596 327.203 792.596 327.203C791.934 327.217 792.945 324.011 793.851 308.77C794.159 303.606 794.454 297.062 794.671 288.791C794.866 281.35 794.993 272.508 795.006 262.019C795.025 249.404 814.537 235.828 814.899 235.828L814.904 235.833C814.904 237.651 817.763 241.002 822.172 241.292C827.401 241.632 833.822 239.03 833.822 236.014C833.822 235.982 843.279 251.15 846.637 267.311C847.063 269.361 847.394 271.519 847.656 273.796C847.661 273.832 847.666 273.864 847.67 273.9C847.72 274.317 847.765 274.734 847.806 275.156C847.815 275.229 847.82 275.306 847.829 275.378C847.869 275.759 847.906 276.149 847.942 276.539C847.951 276.648 847.96 276.761 847.969 276.875C848.001 277.233 848.033 277.586 848.06 277.945C848.06 277.976 848.064 278.008 848.069 278.044C848.091 278.312 848.11 278.58 848.128 278.847C848.141 279.038 848.155 279.228 848.169 279.423C848.191 279.74 848.209 280.053 848.232 280.371C848.241 280.529 848.25 280.688 848.264 280.851C848.282 281.151 848.3 281.454 848.318 281.763C848.327 281.899 848.336 282.035 848.341 282.171C848.363 282.611 848.391 283.055 848.413 283.504C848.413 283.54 848.418 283.577 848.418 283.613C848.44 284.044 848.459 284.474 848.481 284.914C848.486 285.023 848.49 285.127 848.495 285.236C848.513 285.644 848.531 286.057 848.549 286.474C848.549 286.533 848.554 286.597 848.558 286.656C848.604 287.662 848.64 288.687 848.681 289.73C848.681 289.757 848.681 289.784 848.685 289.807L848.681 289.73Z" fill="#FFA557"/>
<path d="M814.899 235.832C814.899 235.832 796.751 235.678 792.383 241.809C788.014 247.94 778.44 280.915 783.438 291.884C788.436 302.857 797.784 287.344 802.977 280.624C808.165 273.904 814.899 235.832 814.899 235.832Z" fill="#FFA557"/>
<path d="M814.714 233.063L814.723 234.94C814.723 234.94 814.211 240.812 821.438 241.669C828.661 242.531 834.135 239.379 833.94 234.849C833.288 231.34 832.577 228.932 832.527 226.03C832.509 224.951 832.581 223.808 832.785 222.516L818.788 222.234L814.664 222.91L814.714 233.063Z" fill="#FEE7AE"/>
<path d="M814.659 222.906L814.714 233.059C816.2 233.753 817.876 234.174 819.762 234.174C826.196 234.174 830.356 229.454 832.526 226.026C832.508 224.947 832.581 223.804 832.785 222.512L818.787 222.23L814.659 222.906Z" fill="#FFDA7D"/>
<path d="M833.854 220.255C832.232 229.003 820.949 228.717 816.078 228.164C814.705 228.01 813.844 227.837 813.844 227.837C812.298 227.425 811.433 224.985 811.034 221.793C810.237 215.472 811.243 206.194 812.312 203.822C813.916 200.254 816.943 196.39 828.299 199.179C839.659 201.968 835.939 209.051 833.854 220.255Z" fill="#FEE7AE"/>
<path d="M796.343 260.404C796.343 260.404 789.324 275.917 789.528 280.565C789.528 280.565 793.003 280.447 796.343 281.44C801.831 283.081 796.343 260.404 796.343 260.404Z" fill="#EF9241"/>
<path d="M808.823 195.498C808.823 195.498 813.821 195.113 819.721 192.546C824.506 190.465 830.546 192.755 832.504 193.789C832.449 193.471 832.322 193.041 832.023 192.61C832.023 192.61 832.902 193.236 833.034 194.106C833.124 194.174 833.165 194.22 833.143 194.233C833.143 194.233 834.139 194.052 834.783 194.338C834.783 194.338 834.334 194.274 834.176 194.564C834.158 194.596 834.135 194.619 834.103 194.641C841.571 198.251 842.26 210.059 839.858 212.793C836.967 216.081 833.501 223.481 833.501 223.481C833.501 223.481 832.236 221.731 832.762 218.838C833.288 215.945 830.791 215.945 827.637 214.63C824.483 213.315 827.111 209.632 824.352 207.397C821.592 205.161 811.473 206.476 811.605 204.767C807.848 203.411 808.823 195.884 808.823 195.498Z" fill="#3C4347"/>
<path d="M836.143 289.464C833.179 301.372 801.138 307.525 793.852 308.772C794.16 303.607 794.454 297.064 794.672 288.793L836.143 289.464Z" fill="#EF9241"/>
<path d="M829.11 293.33C829.414 293.33 836.233 292.31 837.457 291.702C838.676 291.09 844.263 283.15 840.606 281.11C836.949 279.074 827.13 287.222 827.13 287.222L829.11 293.33Z" fill="#FEE7AE"/>
<path d="M787.638 295.693C787.638 295.693 814.006 297.125 831.706 293.33C831.706 293.33 832.154 288.215 826.59 285.943C826.59 285.943 799.007 280.094 792.383 281.722C785.758 283.354 787.638 295.693 787.638 295.693Z" fill="#FFA557"/>
<path d="M848.196 274.985C842.722 281.587 835.567 286.978 827.682 288.239C827.619 288.139 825.294 284.611 825.729 279.429C825.933 277.03 826.721 274.273 828.602 271.339C829.182 270.437 829.694 269.38 830.152 268.21C834.456 257.214 833.818 236.02 833.818 236.02C833.818 236.02 852.106 237.938 857.807 246.082C861.296 251.074 856.846 264.546 848.196 274.985Z" fill="#FFA557"/>
<path d="M816.078 228.17C814.705 228.016 813.844 227.843 813.844 227.843C812.298 227.431 811.433 224.991 811.034 221.799C813.934 222.515 815.262 224.755 815.815 225.712C816.064 226.138 816.118 227.1 816.078 228.17Z" fill="#FFDA7D"/>
<path d="M808.71 233.116C808.71 233.116 802.393 222.687 807.305 222.234C812.217 221.78 814.188 225.108 814.899 226.328C815.611 227.553 814.714 233.062 814.714 233.062L808.71 233.116Z" fill="#FEE7AE"/>
<path d="M832.785 279.075C832.59 280.399 832.196 281.614 831.706 282.698C830.166 286.126 827.682 288.244 827.682 288.244C811.279 280.834 807.957 255.391 807.404 241.411C807.178 235.793 807.404 232.025 807.404 232.025C814.804 229.572 816.884 233.834 816.884 233.834C816.884 233.834 825.621 254.625 830.156 268.215C831.887 273.407 833.007 277.556 832.785 279.075Z" fill="#FFA557"/>
<path d="M848.196 274.984C842.722 281.587 835.567 286.978 827.682 288.239C811.279 280.829 807.957 255.386 807.404 241.406C807.404 241.406 815.167 269.579 825.729 279.428C827.637 281.21 829.64 282.389 831.706 282.698C831.706 282.698 845.028 278.929 847.824 275.383C848.024 275.129 848.146 275.003 848.196 274.984Z" fill="#EF9241"/>
</svg>
